<?xml version="1.0" standalone="no"?>
<!DOCTYPE svg PUBLIC "-//W3C//DTD SVG 1.1//EN" "http://www.w3.org/Graphics/SVG/1.1/DTD/svg11.dtd" >
<svg xmlns="http://www.w3.org/2000/svg">
<metadata>
Created by FontForge 20120731 at Mon Jun  5 17:17:23 2017
 By admin
</metadata>
<defs>
<font id="iconfont" horiz-adv-x="1024" >
  <font-face 
    font-family="iconfont"
    font-weight="500"
    font-stretch="normal"
    units-per-em="1024"
    panose-1="2 0 6 3 0 0 0 0 0 0"
    ascent="896"
    descent="-128"
    x-height="792"
    bbox="0 -224 1553 896"
    underline-thickness="0"
    underline-position="0"
    unicode-range="U+0078-E793"
  />
<missing-glyph 
 />
    <glyph glyph-name=".notdef" 
 />
    <glyph glyph-name=".notdef" 
 />
    <glyph glyph-name=".null" horiz-adv-x="0" 
 />
    <glyph glyph-name="nonmarkingreturn" horiz-adv-x="341" 
 />
    <glyph glyph-name="x" unicode="x" horiz-adv-x="1001" 
d="M281 543q-27 -1 -53 -1h-83q-18 0 -36.5 -6t-32.5 -18.5t-23 -32t-9 -45.5v-76h912v41q0 16 -0.5 30t-0.5 18q0 13 -5 29t-17 29.5t-31.5 22.5t-49.5 9h-133v-97h-438v97zM955 310v-52q0 -23 0.5 -52t0.5 -58t-10.5 -47.5t-26 -30t-33 -16t-31.5 -4.5q-14 -1 -29.5 -0.5
t-29.5 0.5h-32l-45 128h-439l-44 -128h-29h-34q-20 0 -45 1q-25 0 -41 9.5t-25.5 23t-13.5 29.5t-4 30v167h911zM163 247q-12 0 -21 -8.5t-9 -21.5t9 -21.5t21 -8.5q13 0 22 8.5t9 21.5t-9 21.5t-22 8.5zM316 123q-8 -26 -14 -48q-5 -19 -10.5 -37t-7.5 -25t-3 -15t1 -14.5
t9.5 -10.5t21.5 -4h37h67h81h80h64h36q23 0 34 12t2 38q-5 13 -9.5 30.5t-9.5 34.5q-5 19 -11 39h-368zM336 498v228q0 11 2.5 23t10 21.5t20.5 15.5t34 6h188q31 0 51.5 -14.5t20.5 -52.5v-227h-327z" />
    <glyph glyph-name="xinlang" unicode="&#xe620;" horiz-adv-x="1000" 
d="M368 274q-137 -16 -137 -163q0 -2 0.5 -5t2.5 -12.5t5.5 -17.5t12.5 -18t21 -16q70 -34 131.5 -20.5t98.5 61.5q14 18 19 44.5t-2 54t-24 50.5t-50.5 35t-77.5 7zM329 70.5q-22 -2.5 -37 8.5t-15 29q0 19 14 34.5t35 17.5q25 2 40 -9.5t15 -30.5q0 -18 -15 -32.5t-37 -17
zM420 148.5q-7 -5.5 -15 -5t-12 7.5q-4 6 -2.5 15t9.5 14q8 6 16 5t12 -7.5t1.5 -15t-9.5 -14zM782 669q-53 12 -126 -2q-1 0 -2 -0.5l-1 -0.5l-1 -1q-12 -3 -19.5 -13t-7.5 -22q0 -16 10.5 -26.5t26.5 -10.5q20 2 33 8q6 0 19 1.5t35 -4t44 -14t45.5 -28t39.5 -46.5
q28 -63 11 -122q-7 -18 -7 -35q0 -15 10.5 -24.5t26 -9.5t24 6t11.5 26v0q19 59 14.5 107.5t-21 84t-45.5 62t-58.5 41.5t-61.5 23zM801 373q9 0 16 6t9 15v2q4 35 -1.5 61.5t-17.5 41t-27.5 24t-32 12.5t-30 3.5t-22 -0.5l-8.5 -1q-10 0 -17.5 -7.5t-7.5 -18t7.5 -18
t17.5 -7.5q33 7 52.5 1t27.5 -21t10 -30t0 -27l-2 -11q0 -11 7.5 -18t18.5 -7zM726 310q-17 3 -21.5 9.5t-1.5 12.5l4 5q1 2 3.5 6t6 16.5t4.5 24.5t-4 27t-17 27q-15 15 -39 20t-48 1t-46 -10t-35 -12l-14 -6q-10 -3 -17 -4t-11 0.5t-6 3t-2 7.5t1 10t3 13.5t3 14.5
q0 16 -2.5 29.5t-11.5 29t-24 23t-43 7t-65 -12.5q-37 -13 -75.5 -38.5t-67.5 -52.5t-52.5 -52.5t-35.5 -42.5l-13 -16q-22 -29 -36.5 -59.5t-20.5 -50.5t-8.5 -39.5t-2.5 -26t1 -9.5v0q5 -51 30.5 -91.5t60 -66t82 -43t90.5 -25.5t92 -12q80 -6 165 12.5t158.5 64.5
t103.5 111q18 38 18.5 71t-11.5 54t-30.5 37t-35 23t-29.5 10zM399 -23q-116 -5 -197 45t-81 127t80.5 132t197.5 60q117 6 197.5 -38.5t80.5 -119.5q0 -78 -82 -139.5t-196 -66.5z" />
    <glyph glyph-name="fenlei" unicode="&#xe600;" 
d="M931 -212h-290q-37 0 -65 38t-28 79v265q0 39 27 66.5t66 27.5h290q38 0 65.5 -27.5t27.5 -66.5v-288q0 -39 -27.5 -66.5t-65.5 -27.5zM976 167q0 20 -14 34t-34 14h-285q-20 0 -34 -14t-14 -34v-286q0 -19 14 -33t34 -14h285q20 0 34 14t14 33v286zM931 336h-290
q-37 0 -65 38t-28 79v265q0 39 27 66t66 27h290q38 0 65.5 -27t27.5 -66v-289q0 -39 -27.5 -66t-65.5 -27zM976 715q0 19 -14 33t-34 14h-285q-20 0 -34 -14t-14 -33v-286q0 -20 14 -34t34 -14h285q20 0 34 14t14 34v286zM383 -212h-290q-37 0 -65 38t-28 79v265
q0 39 27.5 66.5t65.5 27.5h290q39 0 66 -27.5t27 -66.5v-288q0 -39 -27 -66.5t-66 -27.5zM429 167q0 20 -14 34t-34 14h-286q-19 0 -33 -14t-14 -34v-286q0 -19 14 -33t33 -14h286q20 0 34 14t14 33v286zM383 336h-290q-37 0 -65 38t-28 79v265q0 39 27.5 66t65.5 27h290
q39 0 66 -27t27 -66v-289q0 -39 -27 -66t-66 -27zM429 715q0 19 -14 33t-34 14h-286q-19 0 -33 -14t-14 -33v-286q0 -20 14 -34t33 -14h286q20 0 34 14t14 34v286z" />
    <glyph glyph-name="qq" unicode="&#xe621;" 
d="M139 233q-24 -59 -27.5 -108t15.5 -60q13 -7 32.5 7.5t38.5 45.5q16 -66 72 -116q-29 -11 -45.5 -28.5t-16.5 -37.5q0 -34 43.5 -57.5t105.5 -23.5q56 0 97.5 19.5t50.5 48.5h18q8 -29 50 -48.5t98 -19.5q62 0 105.5 23.5t43.5 57.5q0 20 -16.5 37.5t-45.5 28.5
q56 50 71 116q20 -31 39 -45.5t32 -7.5q19 11 16 60t-27 108q-19 46 -42 78t-43 40q1 7 1 12q0 35 -17 64v4q0 16 -7 30q-5 125 -77.5 207t-190 82t-189.5 -82t-77 -207q-7 -14 -7 -30v-4q-17 -29 -17 -64q0 -5 1 -12q-20 -8 -43.5 -40t-41.5 -78z" />
    <glyph glyph-name="zuzhi" unicode="&#xe60f;" 
d="M80 291q0 4 0.5 11.5t6 28t15.5 38t32 36.5t52 30q3 2 10 4t27 4.5t39.5 0t45.5 -14t48 -32.5l260 134q-1 5 -1.5 14t3.5 33.5t14 45.5t34.5 45t60.5 38q6 1 15.5 3t36 2t50.5 -7t51 -30.5t44 -61.5q2 -5 4.5 -13t5.5 -32t-0.5 -46t-20.5 -50.5t-47 -50.5q-4 -3 -11 -7.5
t-29.5 -12.5t-45 -9t-54.5 9.5t-61 35.5l-266 -137q3 -17 0 -35l266 -132q3 4 10 9.5t29 17t44.5 16t56.5 -1.5t66 -28q5 -3 12.5 -10t23.5 -29t24 -46t4.5 -59.5t-25.5 -70.5q-3 -5 -9 -13t-27 -25t-44.5 -26.5t-60.5 -8.5t-76 21q-3 2 -9 5.5t-20.5 17t-25 30t-18 45.5
t-4.5 62l-264 131l-3.5 -3.5t-10.5 -9t-17.5 -11.5t-24 -10.5t-30 -8t-36.5 -1.5t-42 7v0l-12.5 5t-26 15.5t-32.5 28.5t-25.5 45t-11.5 64v0v0zM80 291z" />
    <glyph glyph-name="zhifubao" unicode="&#xe625;" horiz-adv-x="1037" 
d="M666 198q31 56 55 118.5t32 96.5l9 34h-13v0h-109h-115v90h281v38h-281v135h-128v-135h-256v-38h256v-90h-218v-38h442q0 -7 -7 -13q0 -45 -57 -160q-48 19 -91.5 32.5t-78 22t-66.5 12.5t-55 5.5t-46 -0.5t-36.5 -4.5t-28.5 -7.5t-21 -8t-15.5 -8t-9.5 -6
q-45 -31 -69.5 -67t-28 -68.5t3.5 -64t23.5 -57t34 -44.5t33 -29t22.5 -9q286 -63 480 167q6 -7 19 -7q71 -38 410 -198v192q-9 0 -21.5 2t-31.5 6.5t-36 9t-43.5 13t-45 14t-50 16l-48 16t-50 16.5t-45.5 16zM499 140q-45 -58 -98.5 -92.5t-96 -45t-87 -9t-65.5 7t-37 11.5
q-28 7 -46.5 34t-22 59t12.5 64t50 48q57 18 114 20t110.5 -11t93 -28.5t85.5 -38.5z" />
    <glyph glyph-name="gengduo" unicode="&#xe793;" 
d="M512 569q37 0 63.5 26t26.5 63.5t-26.5 63.5t-63.5 26t-63.5 -26t-26.5 -63.5t26.5 -63.5t63.5 -26zM512 390q-37 0 -63.5 -26.5t-26.5 -63.5t26.5 -63.5t63.5 -26.5t63.5 26.5t26.5 63.5t-26.5 63.5t-63.5 26.5zM512 31q-37 0 -63.5 -26t-26.5 -63.5t26.5 -63.5
t63.5 -26t63.5 26t26.5 63.5t-26.5 63.5t-63.5 26z" />
    <glyph glyph-name="shoucang" unicode="&#xe602;" 
d="M510 753q15 0 21 -12l97 -198q9 -18 29 -21l224 -33q14 -2 18 -14t-5 -20l-164 -161q-14 -14 -11 -33l38 -222q2 -13 -9 -20q-6 -4 -13 -4q-6 0 -12 3l-195 102q-9 5 -18.5 5t-18.5 -5l-195 -102q-5 -3 -11 -3q-8 0 -14 4q-11 7 -9 20l38 222q3 19 -11 33l-164 161
q-9 8 -5 20t18 14l224 33q20 3 29 21l98 198q6 12 21 12zM510 791q-18 0 -33.5 -9t-23.5 -25l-97 -197l-223 -33q-18 -2 -31 -13t-19 -27q-12 -34 14 -60l164 -160l-38 -222q-6 -36 26 -58q16 -10 36 -10q15 0 30 7l195 103l195 -103q14 -7 30 -7q19 0 35 10q32 22 26 58
l-38 222l164 160q26 26 14 60q-5 16 -18.5 27t-30.5 13l-224 33l-97 197q-8 16 -23 25t-33 9v0z" />
    <glyph glyph-name="xiaoxi" unicode="&#xe60d;" horiz-adv-x="1307" 
d="M1160 220q12 0 20 8.5t8 19.5v357q0 33 -19 60v1t-1 1q0 1 -1.5 1.5t-1.5 1.5q-32 40 -82 40h-867q-43 0 -74 -30.5t-31 -74.5v-634q0 -44 31 -74.5t74 -30.5h867q44 0 74.5 30.5t30.5 74.5v87q0 11 -8 19t-19.5 8t-19.5 -8t-8 -19v-82q0 -23 -16 -39t-39 -16h-856
q-23 0 -39 16t-16 39v624v8l482 -393v0q6 -4 14 -5h4.5h4.5q8 1 14 5v0l447 389v-2.5v-1.5v-352q0 -11 8 -19.5t19 -8.5v0zM222 655h856q10 0 20 -4l-430 -377l-462 378q9 3 16 3v0zM222 655z" />
    <glyph glyph-name="huiyuanqia" unicode="&#xe65d;" 
d="M0 542v103q12 38 50 53h918q46 -18 49 -53v-106h-20h-977zM997 443h-976h-21v-515q14 -35 29.5 -45.5t53.5 -10.5h855q43 0 61.5 18t18.5 61v469v23h-21zM413 32h-348v61h348v-61zM476 191h-410v61h410v-61zM604 191h-93v61h93v-61z" />
    <glyph glyph-name="shezhi" unicode="&#xe62d;" 
d="M511.5 564q-74.5 0 -127 -52.5t-52.5 -126.5t52.5 -126.5t127 -52.5t127 52.5t52.5 126.5t-52.5 126.5t-127 52.5zM511.5 250q-55.5 0 -95 39.5t-39.5 95t39.5 95t95 39.5t95 -39.5t39.5 -95t-39.5 -95t-95 -39.5zM960 295v179l-130 22q-6 19 -15 35l77 107l-127 127
l-107 -77q-16 9 -35 15l-22 130h-179l-22 -130q-14 -4 -35 -15l-107 76l-126 -126l76 -107q-9 -17 -15 -35l-130 -22v-179l130 -21q7 -21 16 -37l-77 -106l127 -127l107 76q20 -9 34 -13l22 -130h179l22 130q20 6 36 15l107 -77l127 127l-77 107q10 20 14 35zM787 286
q-4 -11 -11 -27q-12 -24 4 -46l54 -77l-73 -73l-76 55q-11 9 -26 9q-11 0 -21 -6q-13 -7 -29 -12q-26 -8 -30 -35l-16 -93h-103l-15 93q-5 28 -32 36q-11 3 -28 11q-9 4 -19 4q-14 0 -26 -8l-76 -55l-73 73l54 76q16 23 3 47q-7 12 -12 29q-8 26 -35 31l-93 15v103l93 16
q27 4 35 31q5 14 11 28q13 24 -3 46l-54 76l73 72l76 -53q11 -9 26 -9q10 0 20 5q17 9 28 12q27 8 32 36l15 92h103l16 -92q4 -28 31 -36q14 -4 26 -11q10 -6 22 -6q15 0 26 9l77 55l73 -73l-55 -76q-17 -24 -3 -49q7 -11 11 -26q8 -27 36 -31l92 -16v-103l-92 -15
q-28 -5 -36 -32z" />
    <glyph glyph-name="weixin" unicode="&#xe651;" 
d="M683 476q16 0 31 -2q-18 110 -114.5 184.5t-225.5 74.5q-93 0 -171.5 -40.5t-124.5 -109.5t-46 -150q0 -68 33 -128t90 -102q-8 -41 -14.5 -76t-5.5 -34q10 4 111 62q62 -22 128 -22h15q-8 32 -8 64q0 116 88.5 197.5t213.5 81.5zM509 574q18 0 30.5 -12.5t12.5 -30.5
t-12.5 -30.5t-30.5 -12.5t-30.5 12.5t-12.5 30.5t12.5 30.5t30.5 12.5zM246 488q-18 0 -30.5 12.5t-12.5 30.5t12.5 30.5t30.5 12.5t30.5 -12.5t12.5 -30.5t-12.5 -30.5t-30.5 -12.5zM992 207q0 104 -86 177t-207.5 73t-207.5 -73.5t-86 -177t86 -177t208 -73.5q64 0 123 23
q78 -41 83 -43q1 -1 -3.5 23t-12.5 57q48 35 75.5 84.5t27.5 106.5zM588.5 262q-17.5 0 -30 12.5t-12.5 30t12.5 30t30 12.5t30 -12.5t12.5 -30t-12.5 -30t-30 -12.5zM802.5 262q-17.5 0 -30 12.5t-12.5 30t12.5 30t30 12.5t30 -12.5t12.5 -30t-12.5 -30t-30 -12.5z" />
    <glyph glyph-name="shuaxin" unicode="&#xe604;" horiz-adv-x="1134" 
d="M528 -18v58q71 0 84 1q108 11 181.5 94t73.5 195q0 121 -83 206t-199.5 85t-199 -85t-82.5 -206h-56q0 95 45 175t123 127t170 47t169.5 -47t123 -127t45.5 -175q0 -135 -89 -235t-219 -112q-15 -1 -87 -1zM528.5 40q11.5 0 20 -8.5t8.5 -20.5t-8.5 -20.5t-20 -8.5
t-20 8.5t-8.5 20.5t8.5 20.5t20 8.5zM134 330h282l-141 -174z" />
    <glyph glyph-name="mima" unicode="&#xe692;" 
d="M500 207h24q14 0 24.5 -10.5t10.5 -24.5v-163q0 -14 -10.5 -24.5t-24.5 -10.5h-24q-14 0 -24.5 10.5t-10.5 24.5v163q0 14 10.5 24.5t24.5 10.5zM884 323v-419q0 -19 -13.5 -32.5t-32.5 -13.5h-652q-19 0 -32.5 13.5t-13.5 32.5v419h744zM954 393h-884v-489q0 -48 34 -82
t82 -34h652q48 0 82 34t34 82v489v0zM861 393h-70v70q0 116 -83 197.5t-196 81.5q-114 0 -196.5 -82.5t-82.5 -196.5v-70h-70v70q0 93 47 174t127.5 128t174.5 47q93 0 173 -45.5t128 -126.5t48 -177v-70z" />
    <glyph glyph-name="shangcheng" unicode="&#xe63f;" 
d="M896 362q0 -41 -28 -70t-68 -29t-68 29t-28 70v0v0v0q0 -41 -28 -70t-68 -29t-68 29t-28 70v0v0v0v0q0 -41 -28 -70t-68 -29t-68 29t-28 70v0v0v0v0q0 -41 -28 -70t-68 -29t-68 29t-28 70v0v0v0l59 177h650l59 -177v0v0zM772 599h-520q-15 0 -25 8.5t-10 21t10 21t25 8.5
h520q15 0 25 -8.5t10 -21t-10 -21t-25 -8.5zM276 240v-30v-149h472v149v30v0q5 -11 14 -20t16 -10q3 0 6 0.5t6 2.5t4.5 3.5t3.5 5t3 5.5l3.5 7t2.5 6v-239q0 -25 -16.5 -42t-42.5 -17h-472q-22 0 -40.5 17t-18.5 42v239q2 -10 4.5 -15t8.5 -10t16 -5q12 0 20 10t10 20z" />
    <glyph glyph-name="shanchu" unicode="&#xe64f;" 
d="M293 -162q-51 0 -86.5 36.5t-35.5 88.5v674l-25 -25h732l-25 25v-674q0 -52 -35.5 -88.5t-86.5 -36.5h-438zM902 -37v674v25h-24h-732h-24v-25v-674q0 -72 50 -123.5t121 -51.5h438q71 0 121 51.5t50 123.5zM366 662l24 -25v75q0 22 14 36t35 14h146q21 0 35 -14t14 -36
v-75l24 25h-292zM683 662v50q0 42 -28.5 71t-69.5 29h-146q-41 0 -69.5 -29t-28.5 -71v-50h-341v-50h1024v50h-341v0zM488 38h48v424h-48v-424zM293 88h48v324h-48v-324zM658 88h49v324h-49v-324z" />
    <glyph glyph-name="youxiang" unicode="&#xe63c;" 
d="M753 -91h-542q-62 0 -106.5 44.5t-44.5 106.5v422q0 62 44.5 106t106.5 44h542q62 0 106.5 -44t44.5 -106v-422q0 -62 -44.5 -106.5t-106.5 -44.5zM211 572q-38 0 -64.5 -26.5t-26.5 -63.5v-422q0 -37 26.5 -63.5t64.5 -26.5h542q37 0 63.5 26.5t26.5 63.5v422
q0 37 -26.5 63.5t-63.5 26.5h-542zM482 159l-392 392l42 42l350 -349l349 349l43 -42z" />
    <glyph glyph-name="dingbu" unicode="&#xe650;" 
d="M374 266zM512 748l344 -344h-688l344 344v0zM374 404h276v-413h-276v413v0zM168 -79h688v-68h-688v68v0z" />
    <glyph glyph-name="gouwuchexuanzhong" unicode="&#xe61e;" 
d="M351 -17q-26 0 -44.5 -18.5t-18.5 -45t18.5 -45t45 -18.5t45 18.5t18.5 45t-18.5 45t-45.5 18.5v0v0zM797 -17q-27 0 -45.5 -18.5t-18.5 -45t18.5 -45t45 -18.5t45 18.5t18.5 45t-18.5 45t-44.5 18.5v0v0zM932 623q-25 28 -63 28h-637l-2 13q-5 35 -31.5 58.5t-61.5 23.5
h-40q-13 0 -22.5 -9t-9.5 -22.5t9.5 -22.5t22.5 -9h40q10 0 19 -8.5t11 -19.5l30 -178l54 -379q5 -35 31.5 -59t60.5 -24h517q13 0 22.5 9t9.5 22.5t-9.5 22.5t-22.5 9h-517q-10 0 -18.5 8.5t-10.5 19.5l-5 37l505 31q34 0 60.5 23.5t30.5 57.5l50 287q6 48 -23 81v0z
M932 623z" />
    <glyph glyph-name="gou" unicode="&#xe65c;" 
d="M365 342l95 -183q3 8 9 21.5t27 54.5t44 80.5t59 91.5t73.5 95.5t86.5 85t98 66.5q-1 -19 -6 -62.5t-6 -67t4.5 -60t19.5 -69.5q-50 -11 -133 -89t-155 -170t-109 -159q-75 91 -157 157.5t-146 89.5z" />
    <glyph glyph-name="tongji" unicode="&#xe74d;" 
d="M917 -77h-812q-18 0 -30 12.5t-12 29.5v672q0 18 12 30t29.5 12t30 -12t12.5 -30v-532v-98h770q17 0 29.5 -12t12.5 -29.5t-12.5 -30t-29.5 -12.5zM819 49h-84q-18 0 -30 12.5t-12 29.5v294q0 18 12 30t30 12h84q17 0 29.5 -12t12.5 -30v-294q0 -17 -12.5 -29.5
t-29.5 -12.5zM581 49h-84q-18 0 -30 12.5t-12 29.5v462q0 18 12 30t30 12h84q17 0 29.5 -12t12.5 -30v-462q0 -17 -12.5 -29.5t-29.5 -12.5zM343 49h-84q-18 0 -30 12.5t-12 29.5v84q0 18 12 30t30 12h84q17 0 29.5 -12t12.5 -30v-84q0 -17 -12.5 -29.5t-29.5 -12.5v0z" />
    <glyph glyph-name="xiaoxi2" unicode="&#xe619;" 
d="M595 668q0 32 -24.5 55.5t-58.5 23.5t-58.5 -23t-24.5 -56q0 -7 1 -14q-88 -29 -148 -111t-60 -183v-110v-5.5t-0.5 -14l-1 -21t-2 -25t-3.5 -26.5t-5 -24.5t-7 -21.5t-9.5 -14.5t-12.5 -6.5q-18 0 -30 -11.5t-12 -28t12 -28t29 -11.5h664q17 0 29 11.5t12 28t-12 28
t-29 11.5q-19 0 -29 39.5t-12 79.5l-1 39v111q0 103 -58.5 184.5t-149.5 110.5q1 6 1 13zM636 -28q0 -49 -36 -84t-88 -35q-51 0 -87.5 35t-36.5 84h248z" />
    <glyph glyph-name="iconfontquan" unicode="&#xe6c8;" 
d="M78 431q0 27 9 38.5t40 11.5h128v-500h-55q-22 0 -43.5 0.5t-29.5 0.5q-27 -1 -38 9t-11 38v144q0 11 3.5 16.5t14.5 7.5q4 0 11 3t14 9.5t12 17t5 25.5q0 23 -12.5 36t-26.5 15q-11 2 -16 6.5t-5 15.5v106zM161 526v12v1v1v12q0 20 15.5 37t33.5 17h138v-80h-187z
M976 309q-8 -2 -11.5 -8.5t-3.5 -14.5t3.5 -15.5t11.5 -10.5t12.5 -12t5 -19t-2.5 -19t-9 -13q-20 -12 -20 -27t20 -30q4 -3 7.5 -11t3.5 -16t-4 -14t-14 -6h-54q-6 0 -6.5 1t1.5 3.5t5 5.5t5 7q5 14 0 24t-17 17q-8 4 -11.5 12.5t-3 17.5t3.5 16t9 10q8 3 12 11t4 17
t-3 16.5t-9 10.5q-8 4 -12.5 12t-4.5 18t4 19.5t13 15.5q6 4 10 11t4.5 15t-3 15.5t-12.5 12.5q-10 5 -14.5 14.5t-4.5 19.5t4.5 19t12.5 14q17 9 18.5 24.5t-2.5 28.5q-3 10 -12 18t-23 8h-480v79h563q7 0 12 -5t6.5 -12t-1 -14.5t-9.5 -12.5q-6 -5 -10.5 -13t-5 -16.5
t2.5 -17t11 -12.5q11 -6 16.5 -16.5t5.5 -21t-5.5 -19.5t-15.5 -13q-11 -4 -16 -11.5t-5.5 -16.5t4 -17.5t14.5 -14.5t14.5 -16t4 -20t-5 -18.5t-13.5 -9.5zM846 324q-12 -3 -18.5 -11.5t-7 -17.5t5 -18t16.5 -13q10 -4 15 -12t5.5 -17t-3.5 -17t-12 -12q-25 -12 -26 -29
t19 -27q9 -4 14.5 -12.5t6 -18t-3.5 -17t-13 -10.5q-12 -3 -18.5 -11t-7 -17t5 -18t17.5 -15q8 -4 11.5 -12.5t2.5 -16.5t-5.5 -14.5t-12.5 -6.5h-523v500h529q8 0 12.5 -6.5t5 -14.5t-3.5 -16t-13 -11t-14.5 -10t-6.5 -15.5t4 -16.5t17 -12q9 -4 14.5 -12t6 -16.5t-4 -16
t-14.5 -10.5zM605 257q-5 0 -10.5 1t-2.5 6q1 2 9.5 14t19 25.5t19.5 25.5t11 15q5 8 -6 19q-2 2 -8 6t-11 6q-8 3 -11.5 1t-8.5 -9q-2 -3 -10 -14.5t-17 -24.5t-16.5 -23.5t-8.5 -12.5q-2 -4 -7.5 -3t-7.5 5q-1 2 -9 11.5t-17 21.5t-17.5 22.5t-11.5 14.5q-9 17 -19 11
q-7 -4 -12.5 -8.5t-10.5 -7.5q-10 -7 -3 -18q17 -20 30 -37q11 -14 21 -27t12 -15q2 -4 -4 -4h-12q-5 0 -14.5 -0.5t-17.5 0.5q-8 0 -13 -4t-3 -10q1 -4 1 -12v-12q0 -5 3 -5.5t7 -0.5h58q12 0 12 -5v-19q0 -5 -2 -5h-5h-10h-20h-20h-12q-6 1 -8 -3t-3 -9t0 -9.5t1 -7.5
q0 -13 13 -13h60q5 0 6 -1.5t1 -6.5q1 -5 0.5 -18t-0.5 -17q0 -11 13 -11h32q8 0 8 5v7v33q0 10 9 10h9q7 0 15.5 0.5t16.5 0.5h13q14 0 14 10v22q0 9 -10 9h-58q-10 -2 -10 4q0 3 -0.5 7.5t-0.5 8.5t3.5 6t7.5 2h59q10 0 10 7v24q0 4 -3.5 8t-8.5 4h-34z" />
    <glyph glyph-name="shouye" unicode="&#xe638;" 
d="M928 361l-339 353q-33 33 -79.5 33t-79.5 -33l-339 -353q-16 -17 -22.5 -34.5t-6 -28t4.5 -18.5q15 -35 58 -35h50v-271q0 -48 30.5 -83.5t76.5 -35.5h57h87v63v223v12.5v11t0.5 8.5t2.5 7.5t5 4.5t7.5 3.5t11.5 0.5h57h57q6 0 11 -0.5t8 -3.5l4.5 -4.5t2.5 -7.5t1 -8.5
t-0.5 -11t-0.5 -12.5v-223v-63h88h57q46 0 76.5 35.5t30.5 83.5v271h50q42 0 58 35q3 8 4 18.5t-6 28t-23 34.5z" />
    <glyph glyph-name="jiaoyiguanli" unicode="&#xe645;" horiz-adv-x="1025" 
d="M512 812q-175 0 -312 -106.5t-182 -270.5l113 -94q16 145 125 243.5t256 98.5q113 0 206.5 -60.5t140.5 -159.5l-123 -34l288 -131v2q0 104 -40.5 199t-109 163.5t-163.5 109t-199 40.5zM512 -83q-114 0 -207.5 61t-139.5 160h123v1l-287 194q-1 -16 -1 -33
q0 -104 40.5 -199t109 -163.5t163.5 -109t199 -40.5q121 0 228 53.5t178.5 146.5t94.5 208l-120 66q-14 -146 -123.5 -245.5t-257.5 -99.5zM598 516l-35 -73q-35 -72 -40 -87l-5 -15h-2q-17 42 -81 175h-95l109 -192h-82v-57h102v-44h-102v-58h102v-80h88v80h98v58h-98v44
h98v57h-79l112 192h-90z" />
    <glyph glyph-name="icon6" unicode="&#xe60b;" 
d="M841 -147h-642q-52 0 -93 39q-41 41 -41 90v650q0 51 44 85q39 29 90 29h345q13 0 22.5 -9t9.5 -21.5t-9.5 -21.5t-22.5 -9h-345q-27 0 -49 -15t-22 -38v-650q0 -25 23 -46.5t48 -21.5h642q24 0 38.5 21t14.5 47v332q0 13 9.5 22t22 9t22 -9t9.5 -22v-332q0 -50 -30 -87
q-33 -42 -86 -42v0zM500 261q-16 0 -28 11.5t-12 27.5t12 27l419 409q12 11 28.5 11t28 -11.5t11.5 -33.5t-12 -33l-407 -396q-11 -12 -40 -12v0zM500 261z" />
    <glyph glyph-name="succeed" unicode="&#xe688;" 
d="M512 735q-92 0 -175 -35.5t-143.5 -95t-96 -142.5t-35.5 -174t35.5 -174t96 -142.5t143.5 -95t175 -35.5t175 35.5t143.5 95t96 142.5t35.5 174t-35.5 174t-96 142.5t-143.5 95t-175 35.5v0zM770 404l-291 -289q-10 -10 -24 -11.5t-25 4.5q-5 3 -9 7v0l-167 166
q-12 12 -12 29t12 28.5t28.5 11.5t28.5 -11l139 -138l263 260q12 12 28.5 12t28.5 -12t12 -28.5t-12 -28.5v0zM770 404z" />
    <glyph glyph-name="sousuo" unicode="&#xe60a;" 
d="M902 -85q-10 -10 -24 -10t-24 10l-160 160q-99 -86 -230 -86q-95 0 -176.5 47.5t-128.5 128.5t-47 177t47 177t128.5 128.5t177 47.5t177 -47.5t128.5 -128.5t47 -177q0 -122 -75 -218l160 -160q10 -10 10 -24.5t-10 -24.5zM464.5 626q-117.5 0 -201 -83t-83.5 -201
t83.5 -201.5t201 -83.5t201 83.5t83.5 201.5t-83.5 201t-201 83z" />
    <glyph glyph-name="fabu" unicode="&#xe698;" horiz-adv-x="1058" 
d="M892 -14l-430 132l430 496l-562 -496l-330 132l1057 562zM462 -212v231l133 -66z" />
    <glyph glyph-name="icon" unicode="&#xe615;" 
d="M792 -149h-560q-46 0 -79 33t-33 79v560q0 46 33 79t79 33h84v56h76q18 25 50 40.5t70 15.5t70 -15.5t51 -40.5h75v-56h84q47 0 79.5 -33t32.5 -79v-560q0 -46 -32.5 -79t-79.5 -33zM652 635h-62q0 23 -23 39.5t-55 16.5t-55 -16.5t-23 -39.5h-62v-112h280v112zM848 523
q0 23 -16.5 39.5t-39.5 16.5h-84v-112h-392v112h-84q-23 0 -39.5 -16.5t-16.5 -39.5v-560q0 -23 16.5 -39.5t39.5 -16.5h560q23 0 39.5 16.5t16.5 39.5v560zM708 19h-392q-11 0 -19.5 8t-8.5 19.5t8.5 20t19.5 8.5h392q12 0 20 -8.5t8 -20t-8 -19.5t-20 -8zM708 159h-392
q-11 0 -19.5 8t-8.5 19.5t8.5 20t19.5 8.5h392q12 0 20 -8.5t8 -20t-8 -19.5t-20 -8zM708 299h-392q-11 0 -19.5 8t-8.5 19.5t8.5 20t19.5 8.5h392q12 0 20 -8.5t8 -20t-8 -19.5t-20 -8z" />
    <glyph glyph-name="0039" unicode="&#xe648;" 
d="M910 628q0 71 -46 121.5t-112 50.5h-480q-66 0 -112 -50.5t-46 -121.5v-680q0 -71 46 -121.5t112 -50.5h480q66 0 112 50.5t46 121.5v680zM856 -52q0 -49 -30.5 -83.5t-73.5 -34.5h-480q-43 0 -73.5 34.5t-30.5 83.5v680q0 49 30.5 83.5t73.5 34.5h480q43 0 73.5 -34.5
t30.5 -83.5v-680zM188 -8h674v53h-700v-53h26zM437 -116h156v54h-162v-54h6z" />
    <glyph glyph-name="close1" unicode="&#xe62c;" 
d="M557 383l266 264q9 9 9 22t-9.5 22.5t-22.5 9.5t-23 -9l-265 -264l-263 264q-9 9 -22.5 9t-23 -9t-9.5 -22.5t10 -22.5l263 -264l-265 -264q-10 -9 -10 -22.5t9.5 -22.5t22.5 -9t23 9l265 264l265 -267q10 -9 23 -9t22.5 9.5t9.5 22.5t-9 23z" />
    <glyph glyph-name="quxiao" unicode="&#xe6b5;" 
d="M544 832q-98 0 -186.5 -38t-153 -102.5t-102.5 -153t-38 -186.5t38 -186.5t102.5 -153t153 -102.5t186.5 -38t186.5 38t153 102.5t102.5 153t38 186.5t-38 186.5t-102.5 153t-153 102.5t-186.5 38zM128 352q0 85 33 162q31 74 89 132q57 58 132 89q77 33 162 33t162 -33
q58 -24 107 -65l-587 -586q-41 48 -65 106q-33 77 -33 162zM838.5 58q-57.5 -58 -132.5 -89q-77 -33 -162 -33t-162 33q-61 26 -111 69l587 587q43 -50 69 -111q33 -77 33 -162t-33 -162q-31 -74 -88.5 -132z" />
    <glyph glyph-name="select" unicode="&#xe605;" 
d="M511 832q-91 0 -173.5 -35.5t-142.5 -95.5t-95.5 -142.5t-35.5 -173.5t35.5 -174t95.5 -143t142.5 -95t173.5 -35t174 35t142.5 95t95 143t35.5 174t-35.5 173.5t-95 142.5t-142.5 95.5t-174 35.5zM752 499l-302 -302q-11 -11 -23 1l-21 20v0l-135 136q-5 5 -5 12t5 12
l37 37q5 6 12 6t12 -6l107 -106l252 252q10 10 23 -2l37 -37q12 -12 1 -23z" />
    <glyph glyph-name="shoucang1" unicode="&#xe68d;" horiz-adv-x="1342" 
d="M1214 509q-7 24 -41 30l-321 46l-140 279q-16 32 -44 32t-44 -32l-141 -279l-316 -45q-35 -6 -43 -31q-8 -26 20 -53l225 -215l-53 -307q-6 -30 8 -47q20 -23 56 -8q1 1 2 1l286 148l286 -148q15 -8 29 -8q18 0 29 12q13 15 9 40l-55 317l231 220q24 24 17 48v0z" />
    <glyph glyph-name="xiaoxi1" unicode="&#xe681;" 
d="M512 872q-130 0 -240 -56t-174 -152t-64 -210q0 -97 48 -182t132 -144v-212l209 127q46 -7 89 -7q130 0 240 56t174 152.5t64 210t-64 209.5t-174 152t-240 56zM273.5 394q-24.5 0 -42 17.5t-17.5 42.5t17.5 42.5t42 17.5t42 -17.5t17.5 -42.5t-17.5 -42.5t-42 -17.5z
M512.5 394q-24.5 0 -42 17.5t-17.5 42.5t17.5 42.5t42 17.5t42 -17.5t17.5 -42.5t-17.5 -42.5t-42 -17.5zM751.5 394q-24.5 0 -42 17.5t-17.5 42.5t17.5 42.5t42 17.5t42 -17.5t17.5 -42.5t-17.5 -42.5t-42 -17.5z" />
    <glyph glyph-name="pcmac" unicode="&#xe61c;" 
d="M910 781h-796q-23 0 -40 -16.5t-17 -40.5v-437h910v437q0 24 -17 40.5t-40 16.5zM57 190q0 -24 17 -41t40 -17h316l-11 -93h-68q-11 0 -18.5 -8t-7.5 -18.5t7.5 -18t18.5 -7.5h322q11 0 18.5 7.5t7.5 18t-7.5 18.5t-18.5 8h-68l-11 93h316q23 0 40 17t17 41v54h-910v-54
v0z" />
    <glyph glyph-name="552cd47fba2cc" unicode="&#xe610;" 
d="M699 817h-82h-159.5h-79.5q-43 0 -75 -30t-32 -71v-7l-31 -1q-42 0 -72.5 -32.5t-30.5 -74.5v-541q0 -42 32.5 -75.5t74.5 -33.5h401q43 0 75 30t32 72v7h27q42 0 74.5 33t32.5 75v392v40zM699 762v0l134 -162h-81q-20 0 -36.5 29t-16.5 52v81zM699 55q0 -22 -16.5 -42.5
t-37.5 -20.5h-401q-21 0 -43.5 23.5t-22.5 44.5v541q0 21 21.5 43.5t41.5 22.5l30 1v-500q0 -42 32.5 -75t74.5 -33h321v-5zM846 168q0 -21 -23 -44t-44 -23h-414q-20 0 -37 22.5t-17 44.5v541q0 22 17 44.5t37 22.5h293v-122q0 -42 26 -68t68 -26h94v-392zM699 438h-241
q-11 0 -19 -8t-8 -19t8 -19t19 -8h241q11 0 19 8t8 19t-8 19t-19 8zM699 303h-241q-11 0 -19 -8t-8 -19t8 -19t19 -8h241q11 0 19 8t8 19t-8 19t-19 8z" />
    <glyph glyph-name="jiaose" unicode="&#xe687;" 
d="M534 44l74 308l-96 96l-96 -96l74 -308l-170 340q-92 0 -142 -54t-50 -138v-256h768v256q0 84 -50 138t-142 54zM320 640q0 80 56 136t136 56t136 -56t56 -136t-56 -136t-136 -56t-136 56t-56 136v0z" />
    <glyph glyph-name="bangzhu" unicode="&#xe667;" 
d="M379 474q0 81 51 115q38 28 88 28q52 0 88 -31q38 -28 38 -88q5 -48 -55 -102q-35 -31 -45 -50.5t-10 -59.5h-52q0 48 12 71q7 22 45 60q3 2 7 7q51 43 43 77q-7 69 -74 71q-81 0 -81 -98h-55v0v0zM539 174h-59v62h59v-62zM512 -16q-165 0 -282.5 117.5t-117.5 282.5
t117.5 282.5t282.5 117.5t282.5 -117.5t117.5 -282.5t-117.5 -282.5t-282.5 -117.5zM512 744q-149 0 -254.5 -105.5t-105.5 -254.5q0 -98 48 -181t131 -131t181 -48t181 48t131 131t48 181q0 149 -105.5 254.5t-254.5 105.5z" />
    <glyph glyph-name="jia" unicode="&#xe614;" 
d="M768 446h-218v228q0 20 -14 33.5t-33.5 13.5t-33 -13.5t-13.5 -33.5v-228h-218q-20 0 -33.5 -13.5t-13.5 -33t13.5 -33.5t33.5 -14h218v-218q0 -19 13.5 -33t33 -14t33.5 14t14 33v218h218q19 0 33 14t14 33.5t-14 33t-33 13.5z" />
    <glyph glyph-name="wodetuijianyouli" unicode="&#xe628;" horiz-adv-x="1155" 
d="M74 792h875h-875zM74 611h875h-875zM74 430h875h-875zM893 438h-354v163h-31q9 23 19 45t25.5 48.5t32.5 48t39.5 39.5t46.5 26t53.5 5t59.5 -21q40 -22 52.5 -48.5t0 -51.5t-39 -48t-65.5 -43h161q23 0 39 -16t16 -38v-55q0 -22 -16 -38t-39 -16zM738 725
q-30 16 -55.5 8.5t-46.5 -27.5t-36 -44t-23.5 -40.5t-8.5 -18.5q39 -11 112 24q69 32 76 65q5 20 -18 33zM130 438q-23 0 -39 16t-16 38v55q0 22 16 38t39 16h149q-49 29 -78.5 62.5t-29.5 69t41 59.5q30 18 58.5 21t51 -5.5t44 -26.5t37.5 -39.5t31 -48.5t24 -48t18 -44h9
v-163h-355v0zM284 727q-43 -26 10 -69q48 -39 112 -52q26 -5 41 0q1 0 -7.5 18t-22.5 40.5t-34.5 43.5t-45 27.5t-53.5 -8.5zM484 -53h-299q-23 0 -39 16t-16 39v381h354v-436zM893 383v-382q0 -22 -16 -38t-38 -16h-300v436h354z" />
    <glyph glyph-name="close" unicode="&#xe603;" 
d="M496 752q-158 0 -271 -113t-113 -271t113 -271t271 -113t271 113t113 271t-113 271t-271 113zM678 230q10 -9 10 -22t-9.5 -22.5t-22.5 -9.5t-22 10l-138 137l-138 -137q-9 -10 -22 -10t-22.5 9.5t-9.5 22.5t10 22l137 138l-137 138q-10 9 -10 22t9.5 22.5t22.5 9.5
t22 -10l138 -137l138 137q9 10 22 10t22.5 -9.5t9.5 -22.5t-10 -22l-137 -138z" />
    <glyph glyph-name="daochu" unicode="&#xe63d;" 
d="M969 387l-212 212v-159h-77h-9h-302v-106h302h9h77v-158zM578 114q0 -9 -7 -16.5t-17 -7.5h-427q-10 0 -17 7.5t-7 16.5v540q0 9 7 16.5t17 7.5h427q10 0 17 -7.5t7 -16.5v-100h48v100q0 29 -21 50t-51 21h-427q-30 0 -51 -21t-21 -50v-540q0 -29 21 -50t51 -21h427
q30 0 51 21t21 50v100h-48v-100z" />
    <glyph glyph-name="jifen" unicode="&#xe669;" 
d="M1024 392q0 63 -87 102q-75 35 -181 35h-13v0v44v112q3 12 3 25q0 39 -30 73t-88 59q-106 46 -255 46t-255 -46q-57 -25 -87.5 -59t-30.5 -73q0 -13 3 -25v-126v-67v-70v-67v-55v-81v-123l12 -7q10 -7 27.5 -16t71 -29t110.5 -31q71 -13 144 -13q41 0 83 4q18 2 37 5v51
q-21 -4 -41 -6q-107 -12 -211 8q-105 20 -183 62v67q79 -37 171 -55q72 -14 144 -14q42 0 83 5q18 2 37 5v51q-21 -4 -41 -6q-107 -12 -211 8q-105 20 -183 62v4v50v24v2q79 -37 171 -54q71 -14 144 -14q42 0 83 4q18 2 37 5v51q-21 -3 -41 -6q-107 -11 -211 8
q-105 20 -183 62v40v38v3q79 -37 171 -54q71 -14 144 -14q41 0 83 4q18 2 35 5h2q1 0 2 1q-1 -7 -1 -14q0 -8 1 -15v-94v-48v-50v-49v-40v-58v-89l8 -5q58 -36 151 -54q52 -10 104 -10q30 0 60 3q103 11 201 60l10 5v89v69v29v60v39v59v99v0v0zM447 450q-106 -12 -211 8
t-183 62v40v38v17q27 -21 65 -37q106 -47 255 -47t255 47q39 16 65 37v-2v-41h-1l1 -47q-67 -8 -118 -31q-30 -13 -50 -31v0q-19 -4 -37 -7q-21 -4 -41 -6v0zM810 -81q-77 -8 -152 6t-132 45v48q57 -27 123 -40q52 -10 104 -10q30 0 60 4q89 9 175 47v-48q-88 -42 -178 -52
v0zM988 70v0v-11q-88 -41 -178 -51q-77 -9 -152 5q-75 15 -132 45v3v36v17v2q57 -26 123 -39q52 -10 104 -10q30 0 60 3q89 10 175 48v-12h-1l1 -36v0zM988 158v0v0q-88 -42 -178 -52q-77 -8 -152 6q-76 14 -132 45v28v28v2q57 -27 123 -40q52 -9 104 -9q30 0 60 3
q89 9 175 48v-23h-1l1 -36v0zM988 257v0v-1q-88 -41 -178 -51q-77 -9 -152 6q-75 14 -132 44v29v27v9q20 -17 49 -30q76 -35 181.5 -35t180.5 35q30 13 51 31v-28h-1l1 -36v0zM988 257z" />
    <glyph glyph-name="tubiao106" unicode="&#xe62e;" horiz-adv-x="1026" 
d="M344 -43h117q12 0 20.5 9t8.5 22v443l-80 -45l-95 45v-443q0 -13 8.5 -22t20.5 -9v0v0zM2 727v0l46 84l362 -229l120 71l27 16l24 -22l333 -304l41 49l35 -110l36 -111l-108 22l-108 23l44 53l-308 282l-115 -68l-23 -13l-22 14zM216 -43v0q12 0 20.5 9t8.5 22v472
l-175 110v-582q0 -13 8.5 -22t20.5 -9h117v0zM706 -43v0q12 0 20.5 9t8.5 22v287l-2 -1l-172 157q-1 -2 -1 -5v-438q0 -13 8.5 -22t20.5 -9h117v0zM834 -43h117q12 0 20.5 9t8.5 22v112l-174 40v-152q-1 -13 7.5 -22t20.5 -9v0z" />
    <glyph glyph-name="83-copy" unicode="&#xe680;" 
d="M112 480q-15 0 -26 -12t-11 -27v-532q0 -15 10.5 -26t26.5 -11h96v608h-96zM827 43v32h122v117h-122v32h122v112h-122v32h122v65q0 44 -31 75t-75 31h-323q16 46 18.5 95.5t-5.5 115.5q-7 63 -50 104.5t-77 41.5q-47 0 -73 -19.5t-26 -70.5q0 -12 13 -48t15 -55
q1 -13 1 -23q0 -74 -37 -139q-22 -39 -47 -61h-1v-608h482h1h2h107q44 0 75 31t31 76v64h-122z" />
    <glyph glyph-name="xiazai" unicode="&#xe757;" 
d="M544.5 752q-12.5 0 -21.5 -9t-9 -22v-484l-199 201q-9 9 -21.5 9t-21.5 -9t-9 -21.5t9 -21.5l250 -252q4 -4 10 -7q6 -2 13 -2q15 0 25 14l221 220q9 9 9 22t-9 21.5t-21.5 8.5t-21.5 -8l-173 -173v482q0 13 -9 22t-21.5 9zM208 52.5q0 -12.5 9 -21.5t21 -9h613
q13 0 22 9t9 21.5t-9 21.5t-22 9h-613q-12 0 -21 -9t-9 -21.5z" />
    <glyph glyph-name="xinfeng" unicode="&#xe623;" 
d="M891 744q-34 19 -69 19h-620q-35 0 -69 -19l379 -373zM940 696l-402 -396q-11 -10 -26 -9q-15 -1 -26 9l-402 396q-19 -34 -19 -69v-474q0 -56 40.5 -95.5t96.5 -39.5h620q56 0 96.5 39.5t40.5 95.5v474q0 35 -19 69z" />
    <glyph glyph-name="caiwu" unicode="&#xe69d;" 
d="M959 42q0 -18 -6.5 -34.5t-18 -28.5t-27.5 -19t-34 -7h-716q-19 0 -36 7t-29.5 19t-20 28.5t-7.5 34.5v493q0 37 26 63t64 26h716q37 0 63 -26t26 -63v-135h-224q-37 0 -63 -25.5t-26 -62.5q1 -26 11 -46q7 -16 25.5 -30t52.5 -14h224v-180v0zM825 670h-448q54 27 101 53
q42 22 82 43q40 22 63 34q35 19 62 17.5t46 -9.5q21 -11 37 -29l57 -109v0zM691 311.5q0 18.5 13 31.5t31.5 13t31.5 -13t13 -31.5t-13 -32t-31.5 -13.5t-31.5 13.5t-13 32z" />
    <glyph glyph-name="icon13" unicode="&#xe617;" 
d="M67 588l83 83l353 -353l371 370l82 -83l-453 -453z" />
    <glyph glyph-name="kefu" unicode="&#xe673;" 
d="M894 540q-7 98 -59.5 179.5t-138 128.5t-184.5 47t-184.5 -47t-138 -128.5t-59.5 -179.5q-56 -11 -92.5 -55t-36.5 -101v-64q0 -67 47 -113.5t113 -46.5h95v160v64v159h-62q12 122 103 205t215 83t215 -83t103 -205h-62v-159v-64v-160h62q-22 -99 -102 -164t-184 -65
q-32 0 -64 7v-60q31 -6 64 -6q129 0 226.5 83t119.5 207q6 33 6 62h-16h-43h-5v106v43v106h47q33 0 56.5 -31t23.5 -75v-43q0 -44 -23.5 -75t-56.5 -31h16q0 -31 -5 -62q57 10 95 54.5t38 103.5v64q0 57 -36.5 101t-92.5 55v0v0v0zM145 479h48v-106v-43v-106h-48
q-33 0 -56.5 31t-23.5 75v43q0 44 23.5 75t56.5 31v0v0v0zM145 479zM142 511q-6 -3 -15.5 -9.5t-33.5 -26t-40.5 -39t-26.5 -46.5t-2 -52q18 -60 81 -108t98 -46q37 3 25 298l-1 29h-85zM803 511v-321h15.5t35 2.5t46 7t39.5 14.5t24 23q15 39 20.5 109.5t-8.5 93.5
q-6 9 -13.5 17.5t-20 21t-27 21.5t-32 15.5t-38 5.5t-41.5 -10z" />
    <glyph glyph-name="close2" unicode="&#xe611;" 
d="M510.5 868q-98.5 0 -188 -38.5t-154.5 -103t-103 -154.5t-38 -188t38 -188t103 -154.5t154.5 -103t188 -38.5t188.5 38.5t154.5 103t103 154.5t38.5 188t-38.5 188t-103 154.5t-154.5 103t-188.5 38.5zM746 209q12 -12 12 -29.5t-12.5 -30t-30 -12.5t-29.5 12l-173 172
l-172 -172q-12 -12 -29.5 -12t-30 12.5t-12.5 30t12 29.5l172 172l-172 172q-12 13 -12 30.5t12.5 30t30 12.5t29.5 -13l172 -172l173 172q12 13 29.5 13t30 -12.5t12.5 -30t-12 -30.5l-173 -172z" />
    <glyph glyph-name="yingxiaoguanli" unicode="&#xe624;" 
d="M541 593l122 -357l67 -19q21 -11 42 -4t27 28l26 45l129 250q11 22 3.5 43t-27.5 28l-411 190q-63 21 -98 8l-117 -40l152 -62q57 -29 85 -110v0v0zM280 -35l331 115q20 7 27.5 22.5t0.5 35.5l-147 427q-7 23 -23.5 43.5t-35.5 26.5l-181 77q-21 6 -42 -1t-33 -25
l-102 -174q-19 -30 2 -91l146 -427q3 -22 18 -29.5t39 0.5v0v0zM258 575q17 6 31 -1t20 -24q5 -15 -1.5 -30t-23.5 -21q-14 -5 -29.5 2t-20.5 23q-6 17 0.5 31t23.5 20v0v0z" />
    <glyph glyph-name="shimingrenzheng" unicode="&#xe66f;" 
d="M1023 -81h1v1l-1 -1v0v0v0zM611 244l-4 1l-2 38v87q7 4 16 11.5t26 31.5t21 48q3 0 9 1q17 2 34.5 29t25.5 52l8 26v5t-1 11.5t-3 14.5t-6.5 11.5t-11.5 5.5q-28 0 -32 -2l6 85l1 18q0 4 -0.5 10.5t-4.5 24.5t-11 35t-22 37t-36 35t-55 25.5t-76 10.5q-162 -1 -175 -69
q-3 -16 2 -28v0v0q-20 -13 -30 -33.5t-10 -57.5q0 -90 11 -101l-28 10q-1 -1 -3.5 -1.5t-8 -3t-10 -7t-7.5 -13.5t-2 -21q2 -34 25 -70t51 -39l8 -1q0 -19 6 -35t14 -26.5t16.5 -18t13.5 -10.5l6 -3v-83l-74 -40l-219 -72q-3 -1 -8.5 -3.5t-19 -12t-24 -22.5t-19 -37
t-8.5 -53v-145h626q-29 38 -51 87.5t-22 92.5q0 92 58 164v0v0v0zM814 291q-86 0 -147.5 -61.5t-61.5 -148t61.5 -148t148 -61.5t148 61.5t61.5 148t-61.5 148t-148.5 61.5v0v0v0zM949 120q-66 -65 -129 -131q-1 -4 -9 -12q-14 -13 -21 -17q-13 -10 -24 -1q-8 3 -15 12
q-14 14 -39.5 38.5t-40.5 40.5q-12 12 -13 22t2 14.5t12 13.5q12 12 22 12.5t14.5 -2.5t14.5 -13l27.5 -27.5l23.5 -23.5q15 15 54 55.5t72 73.5q12 12 22.5 14t14.5 -0.5t10 -8.5q32 -31 2 -60v0v0v0z" />
    <glyph glyph-name="zeng" unicode="&#xe612;" horiz-adv-x="1045" 
d="M28 130v629q0 48 26 74q25 26 69 26h187q44 0 68 -27q25 -28 25 -68l-1 -634h-95v600q0 32 -37 32h-114q-32 0 -32 -35v-597h-96v0zM924 319h-357q-100 0 -100 -108l1 -215q0 -40 24 -67q27 -29 76 -29h355q49 0 77 29q23 27 24 67v215q1 108 -100 108zM921 38
q0 -34 -38 -34h-281q-32 0 -32 34v35l351 1v-36zM921 157h-352l1 20q0 16 9 28t25 12h285q16 0 24.5 -11.5t7.5 -26.5v-22v0zM665 835q-3 1 -5 2t-2.5 1.5t-1.5 0.5v1v6v22h-83v-28q0 -23 7 -38t23 -31q20 -21 58 -26l10 -2v90zM835 868v-25v-3l-2 -2q-1 -1 -6 -3l-7 -2v-89
l10 1q46 4 67 27.5t21 70.5v25h-83zM585 608h75v-90h-75v90zM831 608h75v-90h-75v90zM937 762h-191h-1v0h-191q-108 0 -108 -101v-64v-69v-64q0 -100 108 -100l191 -1v0h1l191 1q107 0 107 100v64v70v63q1 101 -107 101zM692 468l-107 -1q-22 0 -29 4q-12 8 -12 25v32v70v32
q0 17 12 25q7 4 29 4l107 -1v-60v-70v-60zM947 528v-32q0 -17 -12 -25q-8 -4 -30 -4l-106 1v60v70v60h106q22 0 30 -4q12 -7 12 -25v-32v-69zM261 227v413h-98l-1 -402q0 -66 -23 -110q-34 -64 -119 -116v-111q124 66 192 150q50 -60 96 -93q42 -30 101 -58v109
q-148 81 -148 218z" />
    <glyph glyph-name="huiyuan1" unicode="&#xe601;" 
d="M75 550q2 5 3 8q5 17 18.5 27t31.5 11q16 2 30.5 -6.5t21.5 -23.5q17 -32 -7 -61l-6 -6q19 -12 60.5 -37t62.5 -38q31 -19 47 -29q13 -7 20 5q61 111 141 258q-33 16 -35 49q-1 25 17 43q17 17 41.5 15.5t40.5 -20.5q17 -22 11 -45.5t-34 -41.5q13 -23 37 -67
q17 -32 51 -94t51 -92q6 -11 11 -12.5t16 5.5q25 15 78 47.5t80 48.5q1 1 3.5 2.5t3.5 2.5q-17 18 -18 39t12 37.5t33 19.5q22 4 39.5 -7t24.5 -32l2 -6v-19q-14 -45 -59 -46q-3 -7 -3 -9q-16 -55 -47 -160.5t-46 -157.5q-3 -10 -7.5 -13.5t-15.5 -3.5h-532q-11 0 -15.5 3.5
t-7.5 13.5q-13 43 -38 129t-37 129q-5 15 -21 69q-36 0 -52 30q-1 2 -7 16v19v0zM810 46q0 -11 -7.5 -19t-18.5 -8h-530q-11 0 -18.5 8t-7.5 19v0q0 10 7.5 18t18.5 8h530q11 0 18.5 -8t7.5 -18v0z" />
    <glyph glyph-name="huiyuan" unicode="&#xe654;" 
d="M64 553l3 8q5 16 18.5 26.5t31.5 11.5q16 1 30.5 -7t22.5 -23q16 -33 -8 -62q-3 -3 -5 -6q6 -4 52.5 -32t70.5 -43q28 -18 47 -29q14 -8 21 5q66 121 142 259q-34 17 -35 50q-2 25 16 42t42.5 16t39.5 -20q18 -22 12 -45.5t-34 -42.5q22 -40 37 -67q17 -31 51.5 -93.5
t51.5 -93.5q6 -11 11 -12.5t16 4.5q30 19 87 54t72 44l3 1.5t4 2.5q-17 18 -19 39q-1 21 12 38t34 20q22 4 40 -7t24 -32q0 -1 2 -6v-20q-14 -45 -59 -45q-3 -9 -3 -10q-16 -54 -47 -160t-46 -159q-3 -11 -8 -14.5t-15 -3.5h-536q-11 0 -15.5 3.5t-8.5 14.5q-12 43 -37 129
t-38 130q-4 13 -11 37.5t-10 32.5q-36 0 -52 30q-1 0 -7 16v19v0v0zM64 553zM510 85h251q16 0 28 -10.5t14 -26.5t-7.5 -29t-25.5 -16q-3 -1 -9 -1h-501q-14 0 -25.5 7.5t-15.5 20.5t0 26.5t15 20.5q14 8 28 8h248v0v0v0zM510 85z" />
    <glyph glyph-name="weixin-copy" unicode="&#xe61d;" 
d="M671 529q14 0 31 -2q-21 96 -112.5 160t-208.5 64q-87 0 -160 -36t-116 -98.5t-43 -136.5q0 -126 127 -215l-31 -96l111 56q81 -16 112 -16q13 0 29 1q-10 34 -10 67q0 104 79 178t192 74zM500 615q18 0 29 -11t11 -29t-11 -28.5t-29 -10.5q-19 0 -33.5 11t-14.5 28.5
t14.5 28.5t33.5 11zM277 536q-19 0 -33.5 11t-14.5 28.5t14.5 28.5t33.5 11q18 0 29 -11t11 -29t-11 -28.5t-29 -10.5zM962 280q0 95 -81 163.5t-190 68.5q-113 0 -192 -68t-79 -164t79 -163.5t192 -67.5q33 0 96 16l87 -48l-24 80q112 84 112 183zM604 320q-12 0 -22 10
t-10 22t10 22t22 10q17 0 28 -9.5t11 -22t-11 -22.5t-28 -10zM779 320q-12 0 -22 10t-10 22t10 22t22 10q17 0 28.5 -9.5t11.5 -22t-11.5 -22.5t-28.5 -10z" />
    <glyph glyph-name="man" unicode="&#xe61f;" horiz-adv-x="1156" 
d="M1098 381l-23 15l-78 -141v-284q0 -28 -21 -47t-51 -19h-255q-7 0 -11.5 4.5t-4.5 10.5v27q0 6 4.5 10.5t11.5 4.5h163q16 0 28.5 11.5t12.5 27.5v54v30l-73 70q-7 6 -15.5 5.5t-13.5 -7.5l-101 -120q-5 -7 -13.5 -7.5t-14.5 6.5l-75 77q-6 6 -14.5 5.5t-14.5 -6.5
l-100 -114q-4 -7 -12 -7h-92q-6 0 -10.5 4.5t-4.5 11.5v369q0 27 22 47t51 20h76q6 0 10.5 4.5t4.5 10.5l1 65q0 6 -4.5 10.5t-10.5 4.5h-137q-6 0 -10.5 4.5t-4.5 11.5v41q0 6 4.5 10.5t10.5 4.5h650q7 0 11.5 -4.5t4.5 -10.5v-41q0 -7 -4.5 -11.5t-11.5 -4.5h-145
q-7 0 -11.5 -4.5t-4.5 -10.5v-65q1 -6 5 -10.5t11 -4.5h87q28 0 48 -18l17 28l-24 14q-9 6 -8 11.5t11 8.5l98 27q10 2 18.5 -3t10.5 -15l19 -100q1 -10 -3.5 -13t-13.5 2zM669 534h-21q-11 0 -18.5 -4.5t-7.5 -10.5v0v-65q0 -6 7.5 -10.5t18.5 -4.5h19q11 0 18.5 4.5
t7.5 10.5l2 65q0 6 -7.5 10.5t-18.5 4.5zM837 382h-359q-16 0 -25.5 -10.5t-9.5 -26.5v-159l94 97q6 7 14.5 7t14.5 -7l78 -81q6 -6 13.5 -5.5t12.5 6.5l102 127q6 6 14 6.5t14 -5.5l72 -78l2 3v89q0 16 -10 26.5t-27 10.5zM983 707h-71q-7 0 -11.5 -4.5t-4.5 -11.5v-36
q0 -6 -5 -11t-11 -5h-122q-7 0 -11.5 5t-4.5 11v36q0 7 -4.5 11.5t-11.5 4.5h-135q-6 0 -11 -4.5t-5 -11.5v-36q0 -6 -4.5 -11t-11.5 -5h-122q-7 0 -11.5 5t-4.5 11v36q0 7 -4.5 11.5t-11.5 4.5h-71q-7 0 -11.5 5t-4.5 11v57q0 6 4.5 11t11.5 5h71q7 0 11.5 4.5t4.5 11.5v36
q0 6 4.5 11t11.5 5h122q7 0 11.5 -5t4.5 -11v-36q0 -7 5 -11.5t11 -4.5h135q7 0 11.5 4.5t4.5 11.5v36q0 13 13 15q2 1 3 1h122q8 0 13 -7q3 -4 3 -9v-36q0 -7 4.5 -11.5t11.5 -4.5h71q6 0 11 -5t5 -11v-57q0 -6 -5 -11t-11 -5zM173.5 397q-37.5 0 -64 26.5t-26.5 64
t26.5 63.5t64 26t63.5 -26t26 -63.5t-26 -64t-63.5 -26.5zM137 629h-9q-37 0 -63.5 26.5t-26.5 63.5t26.5 63.5t64 26.5t64 -26.5t26.5 -63.5q0 -16 -6 -31q-9 -24 -29.5 -40t-46.5 -19zM108 287q2 13 15 13h115q7 0 11.5 -5.5t3.5 -12.5q-28 -145 -50 -253
q-15 -67 -26 -113q-3 -12 -15 -12h-115q-7 0 -11.5 6t-2.5 13q3 15 9 36q39 150 66 328z" />
    <glyph glyph-name="taocan" unicode="&#xe63b;" 
d="M984 15l-128 -128q-14 -14 -33.5 -14t-33.5 14l-64 64q-14 14 -14 33.5t14 33.5t34 14t34 -14l30 -30l93 94q14 14 34 14t34 -14t14 -33.5t-14 -33.5zM822 56q-27 24 -63 24q-40 0 -68 -28t-28 -67q0 -40 29 -68h-1l44 -44h-661q-20 0 -34 14t-14 34v831q0 19 14 33
t34 14h80v-47q0 -40 28 -68t67.5 -28t67.5 28t28 68v47h48v-47q0 -40 28 -68t67.5 -28t67.5 28t28 68v47h47v-47q0 -40 28 -68t68 -28t68 28t28 68v47h79q20 0 34 -14t14 -33v-608q-40 0 -68 -28zM154 72.5q0 -16.5 11.5 -28.5t27.5 -12h303q17 0 28.5 12t11.5 28v0v0v0v0
q0 17 -11.5 28.5t-28.5 11.5h-303q-16 0 -27.5 -11.5t-11.5 -28zM775 528h-574q-19 0 -33 -14t-14 -34t14 -34t33 -14h574q20 0 34 14t14 34t-14 34t-34 14zM775 320h-287h-80h-207q-19 0 -33 -14t-14 -34t14 -34t33 -14h207h80h287q20 0 34 14t14 34t-14 34t-34 14z
M727 704q-20 0 -34 14t-14 34v95q0 20 14 34t34 14t34 -14t14 -34v-95q0 -20 -14 -34t-34 -14zM488 704q-20 0 -34 14t-14 34v95q0 20 14 34t34 14t34 -14t14 -34v-95q0 -20 -14 -34t-34 -14zM249 704q-20 0 -34 14t-14 34v95q0 20 14 34t34 14t34 -14t14 -34v-95
q0 -20 -14 -34t-34 -14z" />
    <glyph glyph-name="gengduo1" unicode="&#xe65a;" 
d="M207 411h610v-67h-610v67zM479 683h66v-611h-66v611z" />
    <glyph glyph-name="tianjia" unicode="&#xe668;" 
d="M873 745q-98 98 -229.5 133t-263 0t-229.5 -133q-74 -73 -112 -168.5t-38 -192.5t38 -192.5t112 -168.5q98 -98 229.5 -133t263 0t229.5 133t133 229.5t0 263t-133 229.5zM185.5 57.5q-88.5 88.5 -120 207.5t0 238t120 207.5t207.5 120t238 0t207.5 -120t120 -207.5
t0 -238t-120 -207.5t-207.5 -120t-238 0t-207.5 120zM548 166v182h182q16 0 26.5 10.5t10.5 25.5v0q0 16 -10.5 26.5t-26.5 10.5h-182v182q0 15 -10.5 26t-25.5 11v0q-15 0 -26 -11t-11 -26v-182h-181q-16 0 -26.5 -10.5t-10.5 -26.5v0q0 -15 10.5 -25.5t26.5 -10.5h181
v-182q0 -15 11 -26t26 -11v0q15 0 25.5 11t10.5 26z" />
    <glyph glyph-name="flower" unicode="&#xe607;" 
d="M804 368q9 21 14.5 44t8.5 44.5t4 43t0.5 40.5t-2 36t-3.5 30.5t-3.5 23.5t-2.5 15.5l-1 5.5q-59 -3 -104 -14.5t-60 -22.5l-15 -10q-22 44 -54 82.5t-54 55.5l-21 16q-3 -2 -8.5 -6.5t-22 -19.5t-32 -31.5t-34 -43t-32.5 -53.5q-5 4 -16.5 11t-57 20t-104.5 16
q-2 -6 -4 -17t-6 -44.5t-4 -66t7 -76t21 -79.5q31 -76 102.5 -130t165.5 -61v-5v-136q0 -10 7.5 -18t18 -8t18 8t7.5 18v136q0 3 -1 5q94 7 166 61t102 130zM435 87q-31 27 -96 58q-28 14 -60 23t-50 10l-17 2q-27 3 -34 -13q-2 -5 -31 -23q-13 -8 -7 -11q87 -14 128 -31
q16 -7 44.5 -30t49.5 -42t21 -20q9 -4 33.5 13t28.5 28q9 20 -10 36zM846 167q-7 16 -34 13q-63 -4 -127 -35q-29 -14 -53 -28.5t-34 -21.5l-9 -8q-19 -16 -10 -36q4 -11 28.5 -28t33.5 -13q80 77 115 92q19 8 50.5 15.5t54.5 11.5l23 4q7 3 -14 15q-22 13 -24 19z" />
    <glyph glyph-name="dayin" unicode="&#xe652;" horiz-adv-x="1056" 
d="M787 159q-10 0 -17 -7.5t-7 -17.5v-198h-488v198q0 10 -7.5 17.5t-17.5 7.5t-17 -7.5t-7 -17.5v-222q0 -10 7 -17.5t17 -7.5h537q10 0 17.5 7.5t7.5 17.5v222q0 10 -7.5 17.5t-17.5 7.5zM909 692h-49v195h-683v-195h-171v-463q0 -51 36 -86.5t86 -35.5h73v97h635v-97h195
v463q0 50 -35.5 86t-86.5 36zM226 838h586v-146h-586v146zM982 156h-97v97h-732v-97h-25q-30 0 -51.5 21.5t-21.5 51.5v414h854q30 0 51.5 -21.5t21.5 -51.5v-414zM171 526q0 12 8 20.5t20 8.5h256q12 0 20.5 -8.5t8.5 -20.5t-8.5 -20t-20.5 -8h-256q-12 0 -20 8t-8 20z" />
    <glyph glyph-name="chanpin" unicode="&#xe722;" 
d="M58 807zM384 743q23 0 39 -15.5t16 -38.5v-217q0 -23 -16 -39t-39 -16h-217q-23 0 -38.5 16t-15.5 39v217q0 23 15.5 38.5t38.5 15.5h217zM384 309q23 0 39 -16t16 -38v-218q0 -23 -16 -38.5t-39 -15.5h-217q-23 0 -38.5 15.5t-15.5 38.5v218q0 22 15.5 38t38.5 16h217z
M819 309q23 0 38.5 -16t15.5 -38v-218q0 -23 -15.5 -38.5t-38.5 -15.5h-217q-23 0 -39 15.5t-16 38.5v218q0 22 16 38t39 16h217zM940 648q17 -18 17 -41.5t-17 -39.5l-162 -162q-17 -17 -40 -17t-40 17l-162 162q-16 16 -16 39.5t16 41.5l162 161q17 17 40 17t40 -17z" />
    <glyph glyph-name="shangpin" unicode="&#xe609;" 
d="M481 804q-14 8 -74.5 41t-80.5 43q-12 9 -21.5 6.5t-16 -7.5t-11 -16.5t-7 -21.5t-3.5 -22q-9 -79 40 -79h163q32 -1 34.5 19.5t-23.5 36.5zM768 828q-2 12 -4 22t-6.5 21t-11 16.5t-16 7.5t-22.5 -6q-18 -10 -79 -43t-75 -41q-27 -16 -24.5 -36.5t34.5 -20.5h163
q50 0 41 80zM0 628v-101q0 -30 13.5 -43.5t49.5 -13.5h371v209h-372q-36 0 -48.5 -11.5t-13.5 -39.5zM1024 624q0 28 -14.5 42t-51.5 14h-365v-210h368q37 0 50 13t13 42v99zM43 -5q1 -123 144 -123h245v521h-389q-1 -320 0 -398zM593 393v-521h237q72 0 107 33.5t35 93.5
q1 79 0 394v0h-379z" />
    <glyph glyph-name="price" unicode="&#xe608;" horiz-adv-x="1088" 
d="M992 832h-224q-40 0 -88 -20t-76 -48l-376 -376q-28 -28 -28 -68t28 -68l280 -280q28 -28 68 -28t68 28l376 376q28 28 48 76t20 88v224q0 40 -28 68t-68 28zM864 512q-40 0 -68 28t-28 68t28 68t68 28t68 -28t28 -68t-28 -68t-68 -28zM87 297l342 -342
q-27 -15 -58.5 -10.5t-54.5 27.5l-280 280q-28 28 -28 68t28 68l376 376q28 28 76 48t88 20l-489 -489q-10 -10 -10 -23t10 -23z" />
    <glyph glyph-name="wangzhan" unicode="&#xe60c;" 
d="M370 390q-9 0 -16 7t-7 15q0 13 7 21t16 8h279q8 0 15 -7t7 -15.5t-7 -16t-15 -7.5h-279v-5zM233 -54q-11 0 -17 5.5t-6 17.5q0 8 7.5 15t15.5 7h239q4 0 8 4t4 8v85q0 17 -18 17h-364q-38 0 -67 26t-29 60v557q4 39 31 65t65 26h820q38 0 64.5 -26.5t26.5 -64.5v-552
q0 -35 -27.5 -60t-69.5 -25h-364q-17 0 -17 -17v-85q0 -5 3.5 -8.5t7.5 -3.5h239q9 0 16 -7t7 -16q0 -11 -6 -16.5t-17 -5.5h-552v-6zM125 794q-30 0 -52 -19.5t-22 -49.5v-506q0 -29 22 -48.5t52 -19.5h774q29 0 51.5 21t22.5 47v506q0 30 -22 49.5t-52 19.5h-774zM302 572
q-9 0 -16 7t-7 15.5t7 15.5t16 7h415q23 0 23 -23q0 -8 -7.5 -15t-15.5 -7h-415z" />
    <glyph glyph-name="sheji" unicode="&#xe618;" 
d="M709 752l164 -164l-505 -505l-163 164zM164 215l168 -168q-20 -29 -48 -34q-21 -4 -130 -29q-24 -5 -41.5 11.5t-11.5 40.5q9 41 27 122q6 26 10.5 33t25.5 24zM741 783l39 37l166 -168l-37 -38zM270 813l-129 -129q-2 -2 -45 -41v-4q16 -13 17 -13q122 -122 189 -190
q1 -1 22 -28l175 176zM175 610l115 116l33 -32l-115 -117zM300 485l-33 33l115 117l33 -33zM704 377l-169 -169l228 -227l168 169zM612 179l115 116l33 -32l-115 -117zM737 55l-33 32l115 117l33 -33z" />
    <glyph glyph-name="IPguanli" unicode="&#xe671;" 
d="M646 589h-38v-128h32q38 0 54 15t16 49q10 64 -64 64zM512 896q-173 0 -294.5 -121.5t-121.5 -294.5q0 -65 43 -151t104 -163.5t122 -145t104 -108.5l43 -40q17 15 45 42t99.5 104.5t126.5 149t100 159.5t45 153q0 173 -121.5 294.5t-294.5 121.5zM448 589h-32v-256h32
v-64h-147v64h32v256h-32v64h147v-64zM762 435q-51 -40 -109 -32h-45v-134h-83v384h134q147 0 147 -122q-10 -70 -44 -96z" />
    <glyph glyph-name="dianpu" unicode="&#xe616;" 
d="M785 345v-228h-549v228h-57v-240q0 -15 14 -30t30 -15h575q15 0 29 15t14 30v240h-56zM225 699h571q15 0 25 10t10 24.5t-10 24.5t-25 10h-571q-15 0 -24.5 -10t-9.5 -24.5t9.5 -24.5t24.5 -10zM840 654h-661l-68 -180q0 -40 29 -69t70 -29t71 28.5t30 69.5q0 -40 29 -69
t70 -29t71 28.5t30 69.5q0 -40 29 -69t70 -29t70.5 28.5t29.5 69.5q0 -40 29 -69t71 -29q41 0 71 28.5t30 69.5z" />
    <glyph glyph-name="miaosha" unicode="&#xe6c3;" 
d="M396 284q0 5 -3 8.5t-8 3.5h-273q-8 0 -10.5 7t2.5 12l570 578q6 5 13 1.5t6 -11.5l-65 -398q0 -5 3 -9t8 -4h273q8 0 10.5 -7t-2.5 -12l-570 -578q-6 -5 -13 -1.5t-6 11.5z" />
    <glyph glyph-name="danpin" unicode="&#xe622;" 
d="M363 841h-191q-46 0 -78 -32.5t-32 -78.5v-191q0 -45 32 -77.5t78 -32.5h301v301q1 46 -32 78.5t-78 32.5zM856 841h-191q-46 0 -78.5 -32.5t-32.5 -78.5v-301h301q46 0 78.5 32.5t32.5 78.5v190q0 46 -32.5 78.5t-77.5 32.5zM172 348q-46 0 -78 -32.5t-32 -78.5v-191
q0 -46 32 -78t78 -32h191q46 0 78.5 32t32.5 78v302h-302zM856 348h-301v-302q0 -45 32 -77.5t78 -32.5h191q46 0 78.5 32.5t32.5 77.5v191q0 46 -32.5 78.5t-78.5 32.5z" />
    <glyph glyph-name="xcx" unicode="&#xe640;" 
d="M32 245q3 59 50.5 108.5t127.5 84.5q77 34 107 -30q8 -16 7.5 -30t-4.5 -22.5t-16 -17t-20 -12l-24 -10.5q-129 -55 -77 -163q26 -52 75.5 -67t102.5 6q87 30 85 135q-4 151 0 322q4 190 179 253q81 29 170.5 5t144.5 -88q41 -49 49 -114.5t-13 -124t-69 -105t-111 -59.5
q-65 -13 -88 37q-17 37 30 79q5 4 39 24q51 29 73 63.5t2 83.5q-35 91 -152 75q-116 -15 -117 -131q0 -39 1 -112.5t0.5 -132.5t-3.5 -112q-3 -65 -45.5 -123.5t-107.5 -92t-133 -31.5q-113 4 -189 88t-74 214v0z" />
    <glyph glyph-name="zanwuneirong" unicode="&#xe655;" horiz-adv-x="1027" 
d="M0 87q0 -26 64 -49t174 -36t237.5 -13t238 13t174.5 36t64 49t-64 49t-174.5 36t-238 13t-237.5 -13t-174 -36t-64 -49zM764 705h-283v23q0 20 -14.5 34.5t-35.5 14.5h-206q-20 0 -35 -14.5t-15 -34.5v-25q-16 -4 -26.5 -17t-10.5 -31v-228q0 -21 14.5 -35.5t34.5 -14.5
h578q20 0 34.5 14.5t14.5 35.5v230q0 20 -14.5 34t-35.5 14zM764 370h-577q-24 0 -41 17t-17 42v228q0 18 10.5 32.5t27.5 21.5v17q0 24 17 41t41 17h206q24 0 41 -17t17 -41v-14h275q25 0 42 -17t17 -41v-229q0 -23 -17 -40t-42 -17zM225 767q-17 0 -29 -12t-12 -29v-31
l-7 -2q-13 -1 -21 -11.5t-8 -24.5v-228q0 -17 12 -29t29 -12h577q17 0 29 12t12 29v228q0 17 -12 29.5t-29 12.5h-292v29q0 16 -12.5 28.5t-28.5 12.5h-208v-2zM764 705h-283v23q0 20 -14.5 34.5t-35.5 14.5h-206q-20 0 -35 -14.5t-15 -34.5v-25q-16 -4 -26.5 -17t-10.5 -31
v-228q0 -21 14.5 -35.5t34.5 -14.5h578q20 0 34.5 14.5t14.5 35.5v230q0 20 -14.5 34t-35.5 14zM764 370h-577q-24 0 -41 17t-17 42v228q0 18 10.5 32.5t27.5 21.5v17q0 24 17 41t41 17h206q24 0 41 -17t17 -41v-14h275q25 0 42 -17t17 -41v-229q0 -23 -17 -40t-42 -17z
M225 767q-17 0 -29 -12t-12 -29v-31l-7 -2q-13 -1 -21 -11.5t-8 -24.5v-228q0 -17 12 -29t29 -12h577q17 0 29 12t12 29v228q0 17 -12 29.5t-29 12.5h-292v29q0 16 -12.5 28.5t-28.5 12.5h-208v-2zM780 92h-606q-18 0 -32 11t-17 27l-44 443q-3 20 10.5 34t33.5 14h701
q21 0 34.5 -14t10.5 -34l-46 -443q0 -15 -13.5 -26.5t-31.5 -11.5zM780 84h-606q-21 0 -38 13t-19 31l-45 443q-2 23 14 42q15 17 41 17h701q24 0 41 -17q14 -14 14 -42l-46 -443q-3 -18 -20 -31t-37 -13zM125 613q-18 0 -27 -12q-11 -12 -9 -28l47 -441q1 -12 12.5 -20.5
t26.5 -8.5h605q14 0 26 8.5t14 20.5l46 443q3 16 -9 27q-9 12 -27 12h-705v-1zM780 92h-606q-18 0 -32 11t-17 27l-44 443q-3 20 10.5 34t33.5 14h701q21 0 34.5 -14t10.5 -34l-46 -443q0 -15 -13.5 -26.5t-31.5 -11.5zM780 84h-606q-21 0 -38 13t-19 31l-45 443
q-2 23 14 42q15 17 41 17h701q24 0 41 -17q14 -14 14 -42l-46 -443q-3 -18 -20 -31t-37 -13zM125 613q-18 0 -27 -12q-11 -12 -9 -28l47 -441q1 -12 12.5 -20.5t26.5 -8.5h605q14 0 26 8.5t14 20.5l46 443q3 16 -9 27q-9 12 -27 12h-705v-1zM907 -19q-4 0 -7 3t-3 7v55
q0 4 3 7t7 3t7 -3t3 -7v-55q-2 -10 -10 -10zM943 16.5q0 -3.5 -3 -7t-7 -3.5h-55q-4 0 -7.5 3.5t-3.5 7t3.5 7t7.5 3.5h55q4 0 7 -3.5t3 -7zM81 702q-4 0 -7.5 3t-3.5 7v55q0 4 3.5 7.5t7.5 3.5t7 -3.5t3 -7.5v-55q-3 -10 -10 -10zM117 740q0 -4 -3.5 -7.5t-7.5 -3.5h-53
q-4 0 -7 3.5t-3 7.5t3 7t7 3h55q9 0 9 -10zM965 590q-8 0 -8 9v34q0 9 8.5 9t8.5 -9v-34q-3 -9 -9 -9zM965 517q-8 0 -8 8v34q0 9 8.5 9t8.5 -9v-34q-3 -8 -9 -8zM953 578q0 -8 -8 -8h-35q-8 0 -8 8.5t8 8.5h35q3 0 5.5 -3t2.5 -6zM1027 578q0 -8 -8 -8h-35q-8 0 -8 8.5
t8 8.5h35q2 0 5 -3t3 -6zM79 348l24 43l24 -43l45 -24l-45 -24l-24 -45l-24 45l-43 24zM103 238l-31 55l-55 31l55 31l31 55l31 -55l55 -31l-55 -31zM53 324l33 -17l17 -33l17 33l33 17l-33 17l-17 33l-17 -33zM79 348l24 43l24 -43l45 -24l-45 -24l-24 -45l-24 45l-43 24z
M103 238l-31 55l-55 31l55 31l31 55l31 -55l55 -31l-55 -31zM53 324l33 -17l17 -33l17 33l33 17l-33 17l-17 33l-17 -33zM874 707l4 7l5 -7l7 -5l-7 -3l-5 -9l-4 9l-8 3zM878 673l-11 19l-18 10l18 12l11 19l10 -19l21 -12l-21 -10zM318 473zM297 473.5q0 -12.5 10.5 -18
t20.5 0t10 18t-10 18t-20.5 0t-10.5 -18zM317.5 444q-11.5 0 -20 9t-8.5 20.5t8.5 20.5t20 9t20.5 -9t9 -20.5t-9 -20.5t-20.5 -9zM318 485q-12 0 -12 -12t12 -12t12 12t-12 12zM636 473zM615 473.5q0 -8.5 6 -14.5t14.5 -6t14.5 6t6 14.5t-6 14.5t-14.5 6t-14.5 -6
t-6 -14.5zM636 444q-12 0 -21 9t-9 20.5t9 20.5t20.5 9t20.5 -9t9 -21q0 -11 -8.5 -20t-20.5 -9zM636 485q-12 0 -12 -12t12 -12t12 12q-1 12 -12 12zM507 32q-17 17 -15 40.5t20 41.5l168 162q16 14 36.5 14t34.5 -14t14 -35.5t-14 -35.5l-162 -168q-18 -18 -42.5 -19.5
t-39.5 14.5zM543 10q-23 0 -43 17q-17 17 -17 43q0 29 22 51l168 162q17 16 41.5 16t41 -16.5t16.5 -41t-16 -41.5l-162 -168q-22 -22 -51 -22zM715 283q-20 0 -30 -12l-168 -163q-17 -18 -17 -40q0 -19 12 -31q13 -13 34 -11.5t36 16.5l162 169q11 13 11 29.5t-11 28.5
q-11 14 -29 14zM507 32q-17 17 -15 40.5t20 41.5l168 162q16 14 36.5 14t34.5 -14t14 -35.5t-14 -35.5l-162 -168q-18 -18 -42.5 -19.5t-39.5 14.5zM819 345zM620 344.5q0 -82.5 58.5 -141t141 -58.5t141 58.5t58.5 141t-58.5 141t-141 58.5t-141 -58.5t-58.5 -141zM819 139
q-83 0 -146 60q-60 60 -60 145.5t60 146.5q60 60 146 60q83 0 146 -60q61 -61 61 -146.5t-61 -145.5q-60 -60 -146 -60zM819 535q-79 0 -134 -55t-55 -133.5t55 -134.5q55 -55 134 -55q76 0 134 55q56 56 56 134.5t-56 133.5q-58 55 -134 55zM819 345zM629 345
q0 -79 55.5 -135t134.5 -56t135 56t56 135t-56 134.5t-135 55.5t-134.5 -55.5t-55.5 -134.5zM819 345zM663 345q0 -42 21 -78.5t57 -57.5t78 -21t78.5 21t57.5 57.5t21 78.5t-21 78t-57.5 57t-78.5 21t-78 -21t-57 -57t-21 -78zM819 180q-69 0 -116 48q-49 48 -49 117
q0 68 49 116q48 48 116 48q69 0 117 -48t48 -116q0 -69 -48 -117t-117 -48zM819 494q-61 0 -105 -43q-42 -43 -42 -105q0 -61 42 -104q43 -43 105 -43t105 43q43 42 43 104t-43 105q-46 43 -105 43zM819 345zM670 345q0 -40 20 -75t54.5 -55t74.5 -20t75 20t55 55t20 75
q0 62 -44 105.5t-106 43.5t-105.5 -43.5t-43.5 -105.5zM560 106q-9 8 0 17l74 74q8 9 17 0t0 -17l-74 -74q-2 -4 -7.5 -4t-9.5 4zM543 89zM529 88.5q0 -5.5 4 -9.5t9.5 -4t9.5 4t4 9.5t-4 9.5t-9.5 4t-9.5 -4t-4 -9.5zM746 431q-3 0 0 0q-9 8 1 15q38 27 83 23.5t79 -35.5
q6 -6 0 -15q-6 -7 -16 0q-27 26 -65 29t-69 -19q-9 -6 -13 2zM699 355q-3 3 -3 8q3 21 12 37q3 8 13 5q9 -3 6 -14q-8 -12 -11 -29q-4 -12 -12 -9q-3 0 -5 2zM615 238q-6 0 -9 5q-16 39 -51.5 61.5t-78.5 22.5t-78 -22.5t-53 -61.5q-3 -8 -12 -5q-8 3 -5 12q19 43 59 69
t87 26t87 -26t59 -69q2 -7 -5 -12v0z" />
    <glyph glyph-name="xianshizhekou" unicode="&#xe613;" 
d="M350 450q-30 -8 -13 -56q18 -52 46 -38q26 9 12 58q-18 44 -45 36zM644 380q-32 -9 -14 -58q17 -52 46 -36q27 9 13 56q-18 46 -45 38zM943 459l-68 77l-7 102l-95 40l-51 89l-102 -5l-85 59l-90 -49l-102 16l-60 -84l-98 -30l-18 -101l-76 -69l28 -99l-38 -96l68 -77
l7 -102l95 -40l51 -89l102 5l85 -59l90 49l102 -15l60 83l98 30l18 101l76 69l-28 99zM396 317q-88 -33 -117 57q-32 87 57 117q86 30 116 -57q31 -89 -56 -117zM485 180l-39 -14l77 422l39 14zM690 248q-90 -28 -118 54q-32 86 58 118q87 30 117 -58q26 -83 -57 -114z" />
    <glyph glyph-name="yuangong" unicode="&#xe606;" 
d="M855 113q0 -59 -34 -101.5t-82 -42.5h-465q-48 0 -82 42.5t-34 101.5q0 46 4.5 87.5t17 83t32 71t51.5 48.5t73 19q71 -70 170 -70t171 70q41 0 73 -19t51 -48.5t31.5 -71t17.5 -83t5 -87.5zM715 596q0 -87 -61 -148t-147.5 -61t-148 61t-61.5 148t61.5 148t148 61
t147.5 -61t61 -148z" />
    <glyph glyph-name="group" unicode="&#xe61a;" 
d="M240 517v81h318v98h127v-98h99v-81h-99v-306q2 -70 -30.5 -103.5t-100.5 -31.5h-89v77h40q53 0 53 53v311h-32q-37 -302 -286 -437v86q143 138 163 351h-163zM71 -59v886h882v-739q3 -151 -151 -147h-731zM818 626v111h-612v-718h551q65 0 61 65v433v109z" />
    <glyph glyph-name="icon-test" unicode="&#xe61b;" horiz-adv-x="1124" 
d="M540 340q-25 -13 -36.5 -31.5t-15.5 -46.5q-14 -80 -42 -91.5t-97 32.5q-37 25 -105 69.5t-91 59.5q-89 58 5 124q167 119 209 301q11 51 39.5 65t77.5 -16q21 -14 93.5 -61.5t111.5 -74.5q60 -41 59.5 -72t-63.5 -64q-41 -22 -55 -40t-2.5 -38t52.5 -43
q65 -36 186 -109.5t135 -82.5q23 -13 36 -23.5t24.5 -26t9.5 -34.5t-17 -42q-53 -78 -148 -10q-78 55 -306 215q-3 3 -60 40zM433 -111q-17 0 -56.5 -0.5t-68.5 -0.5t-56 3q-10 1 -30.5 -2t-34 -4.5t-26 7.5t-16.5 30q-7 46 22 89t65 47q190 22 415 3q38 -4 62 -43.5
t24 -85.5q1 -21 -5.5 -32t-18 -13t-23 -1t-27 3.5t-23.5 1.5q-30 -2 -62.5 -2.5t-77 0t-63.5 0.5z" />
    <glyph glyph-name="pintuan" unicode="&#xe63e;" 
d="M340 384q-76 -2 -124 -60h-63q-39 0 -65 19t-26 55q0 166 58 166q3 0 20 -10q18 -9 46 -20q28 -10 56 -10q31 0 62 11q-2 -17 -2 -31q0 -65 38 -120zM327 769q35 -35 35 -85t-35 -85t-85 -35t-85 35t-35 85t35 85t85 35t85 -35zM842 85q0 -56 -34 -88.5t-91 -32.5h-410
q-56 0 -90.5 32.5t-34.5 88.5q0 26 2 49q1 24 6 51.5t13 50.5q7 24 20 46q12 22 29 38q16 15 40 24.5t52 9.5q5 0 21 -10q15 -10 34 -22.5t50.5 -22.5t63 -10t63.5 10q31 10 50 22.5t34.5 22.5t19.5 10q29 0 53 -9q23 -9 39.5 -25t29 -38.5t20.5 -45.5q7 -23 12 -51
q5 -27 7 -51q1 -30 1 -49zM639 631q53 -53 53 -127t-53 -127t-127 -53t-127 53t-53 127t53 127t127 53t127 -53zM867 769q35 -35 35 -85t-35 -85t-85 -35t-85 35t-35 85t35 85t85 35t85 -35zM962 398q0 -36 -26 -55t-65 -19h-63q-48 58 -124 60q38 55 38 120q0 13 -2 31
q31 -11 62 -11q28 0 56 10t46 20q17 10 20 10q58 0 58 -166z" />
    <glyph glyph-name="shangpin2" unicode="&#xe60e;" 
d="M783 725h-542q-30 0 -50 -20t-20 -50v-542q0 -30 20 -50t50 -20h542q30 0 50 20t20 50v542q0 30 -20.5 50t-49.5 20zM734 172.5q0 -6.5 -4.5 -11t-10.5 -4.5h-405q-6 0 -10.5 4.5t-4.5 11t4.5 11t10.5 4.5h406q5 0 9.5 -4.5t4.5 -11zM722 531q-13 -79 -72.5 -131
t-137.5 -52t-137.5 51.5t-70.5 129.5v2h-2q-17 11 -17 27q0 14 9.5 23.5t22.5 9.5q14 0 23.5 -10t9.5 -23q0 -14 -12 -26l-2 -1v-2q10 -64 59.5 -106t114.5 -42t114.5 42t59.5 106v2l-1 1q-12 10 -12 26q0 14 9.5 23.5t22.5 9.5q14 0 23.5 -10t9.5 -23q2 -16 -14 -27z" />
    <glyph glyph-name="meiyouyinhang" unicode="&#xe665;" horiz-adv-x="1674" 
d="M1497 124v3q0 128 -49.5 244.5t-133.5 201t-200.5 134.5t-244 50t-243.5 -49.5t-200 -134t-133.5 -201.5t-49.5 -245v-3h1254zM1314 124v3q0 91 -35 173.5t-94.5 142.5t-142 95.5t-172.5 35.5t-172.5 -35.5t-142 -95.5t-94.5 -142.5t-35 -173.5v-3h888zM1157 124
q0 120 -85 205.5t-205.5 85.5t-205.5 -85.5t-85 -205.5h581zM292 120q6 0 6 6.5t-6 6.5h-164q-7 0 -7 -6.5t7 -6.5h164zM357 120q7 0 7 6.5t-7 6.5h-32q-7 0 -7 -6.5t7 -6.5h32zM882 120q7 0 7 6.5t-7 6.5h-492q-6 0 -6 -6.5t6 -6.5h492zM948 120q6 0 6 6.5t-6 6.5h-33
q-7 0 -7 -6.5t7 -6.5h33zM1546 120q7 0 7 6.5t-7 6.5h-33q-6 0 -6 -6.5t6 -6.5h33zM1481 120q6 0 6 6.5t-6 6.5h-492q-7 0 -7 -6.5t7 -6.5h492zM669 -53q7 0 7 7t-7 7h-33q-6 0 -6 -7t6 -7h33zM1267 -53q7 0 7 7t-7 7h-32q-7 0 -7 -7t7 -7h32zM1202 -53q6 0 6 7t-6 7h-492
q-7 0 -7 -7t7 -7h492zM1440 728q0 15 -11 26t-26.5 11t-26 -11t-10.5 -26t10.5 -26t26 -11t26.5 11t11 26zM1382 728q0 9 6 14.5t14.5 5.5t14.5 -5.5t6 -14.5t-6 -15t-14.5 -6t-14.5 6t-6 15zM1325 486q0 11 -7 18t-17.5 7t-17.5 -7t-7 -17.5t7 -18t17.5 -7.5t17.5 7.5
t7 17.5zM1292 486q0 8 8 8t8 -8t-8 -8t-8 8zM407 773q0 20 -14.5 34.5t-35 14.5t-35 -14.5t-14.5 -34.5t14.5 -34.5t35 -14.5t35 14.5t14.5 34.5zM325 773q0 14 9.5 23.5t23 9.5t23 -9.5t9.5 -23.5t-9.5 -23.5t-23 -9.5t-23 9.5t-9.5 23.5zM435 482h-32v33q0 2 -1 3t-3 1
q-4 0 -4 -4v-33h-32q-4 0 -4 -4t4 -4h32v-33q0 -4 4 -4t4 4v33h32q4 0 4 4t-4 4zM1217 757l-23 13l13 23q2 3 -1 4.5t-5 -1.5l-13 -22l-22 13h-2q-2 0 -3 -1v-2q0 -2 1 -3l23 -13l-13 -23v-1q0 -2 1 -3t2 -1q2 0 3 2l13 23l22 -13q1 -1 2 -1q2 0 3 2v1q0 2 -1 3zM623 645
h-10q-5 0 -5 5t5 5h10q5 0 5 -5t-5 -5zM609 665q-3 -3 -7 0q-3 3 0 7l7 8q3 3 8 0q2 -3 0 -8zM587 609q-5 0 -5 5v11q0 5 5 5t5 -5v-10q0 -6 -5 -6zM587 671q-5 0 -5 4v10q0 5 5 5t5 -5v-10q0 -4 -5 -4zM565 621q-3 -3 -7 0q-3 3 0 8l7 7q3 3 7 0q3 -3 0 -7zM565 665l-7 7
q-3 3 0 8q2 3 7 0l7 -8q3 -3 0 -7.5t-7 0.5zM567 650q0 -5 -5 -5h-10q-5 0 -5 5t5 5h10q5 0 5 -5zM609 635l8 -7q2 -3 0 -7q-3 -3 -8 0l-7 7q-3 3 0 7.5t7 -0.5zM690 389l-58 42l-5 16l240 201l22 -11l224 -180l11 -21l-63 -42l-5 -189l-26 -17l-314 -4l-21 26zM667 416h-2
q-5 3 -13.5 9.5t-12.5 8.5l-3 2q-9 7 1 16l220 180q13 11 27 0l220 -180q9 -9 0 -17l-3 -1q-4 -4 -13 -11t-13 -10l-20 -16q-8 -7 -1 -15q5 -8 14 -2q1 1 8 6.5t11 9.5q5 4 13.5 11t12.5 10l3 2q12 10 12 24.5t-12 24.5l-220 180q-11 10 -26.5 10t-26.5 -10l-220 -180
q-12 -10 -12 -24.5t12 -24.5l3 -3q5 -3 14 -9t13 -9q23 -17 24 -18q8 -6 15 2q6 9 -2 15q-3 4 -23 19zM780 486l69 57q9 7 2 15q-5 8 -15 2l-69 -58l-10 -8q-8 -6 -2 -14q5 -8 15 -2zM1044 439v-228q0 -6 -6 -10.5t-14 -4.5h-300q-9 0 -15 4.5t-6 10.5v244q0 4 -3 7.5
t-7.5 3.5t-7.5 -3.5t-3 -7.5v-244q0 -15 12.5 -25.5t29.5 -10.5h300q17 0 29.5 10.5t12.5 25.5v244q0 4 -3.5 7.5t-7.5 3.5t-7.5 -3.5t-3.5 -7.5v-16zM811 437l47 -83h-35v-11h41v-23h-41v-11h41v-36h20v36h41v11h-41v23h41v11h-35l47 83h-22l-41 -76l-41 76h-22z" />
    <glyph glyph-name="yanzhengma" unicode="&#xe626;" 
d="M512 -128q-46 0 -105.5 25t-118 70t-108.5 100t-81 122t-31 130v414q0 7 5.5 12.5t13.5 5.5l25 1q10 0 31 1.5t73 12t97 28.5q105 40 173 88l14 10q6 4 12 4t11 -4l15 -10q68 -48 172 -88q46 -18 98 -28.5t73 -12t31 -1.5l25 -1q7 0 13 -5.5t6 -12.5v-414q0 -63 -31 -130
t-81 -122t-108.5 -100t-118 -70t-105.5 -25zM887 685q-106 8 -201 45q-96 38 -174 88q-78 -50 -174 -88q-94 -37 -201 -45v-366q0 -61 41 -131t99.5 -123t123.5 -89t111 -36q40 0 104.5 32t129.5 92q66 61 103.5 128.5t37.5 126.5v366zM476 249q-10 -10 -24 -10t-24 10
l-102 102q-10 10 -10 24.5t10 24.5t24 10t24 -10l78 -79l198 198q10 10 24 10t24 -10t10 -24t-10 -24z" />
    <glyph glyph-name="tubiaozhizuomoban" unicode="&#xe675;" 
d="M745 571v0q-36 0 -61 -25.5t-25 -61.5t25 -61t61 -25v0q36 0 61.5 25t25.5 61t-25.5 61.5t-61.5 25.5zM936 858h-848q-36 0 -61.5 -25t-25.5 -61v-772q0 -36 25.5 -61.5t61.5 -25.5h848q35 0 60.5 25.5t25.5 61.5v772q0 36 -25.5 61t-60.5 25zM970 153l-259 227
l-171 -140l119 -85l-18 -17l-121 87l-190 173l-277 -231v605q0 14 10.5 24.5t24.5 10.5h848q14 0 24 -10.5t10 -24.5v-619v0z" />
    <glyph glyph-name="fenxiao" unicode="&#xe77c;" 
d="M922 126l-7 2l-2 6q-30 92 -95 157q-54 54 -129 86q-70 29 -145 35h-11v119l-2 11l11 2q63 11 104 59t41 112q0 72 -51 123t-124 51t-124 -51t-51 -123q0 -63 40.5 -111t103.5 -60l11 -2l-1 -11v-119h-11q-73 -5 -146 -35q-75 -32 -130 -86q-64 -65 -94 -157l-2 -7l-7 -2
q-43 -9 -71 -43.5t-28 -77.5q0 -52 36.5 -88.5t88.5 -36.5t88.5 36.5t36.5 88.5q0 41 -24 73.5t-64 45.5l-12 3l5 12q52 139 191 198q63 26 129 32l13 1v-242l-9 -2q-42 -11 -68.5 -44.5t-26.5 -76.5q0 -51 37 -87.5t88.5 -36.5t88.5 36.5t37 87.5q0 43 -26.5 77t-68.5 44
l-9 2v242l12 -1q67 -6 127 -31q140 -58 194 -200l4 -11l-12 -4q-38 -12 -62 -45t-24 -73q0 -52 36.5 -88.5t88.5 -36.5t88.5 36.5t36.5 88.5q1 45 -27.5 79.5t-72.5 42.5zM210 4q0 -34 -24.5 -57.5t-58.5 -23.5t-58 24t-24 57q0 34 24 58t58 24t58.5 -24t24.5 -58z
M379 715.5q0 54.5 39 93t94 38.5t94 -38.5t39 -93t-39 -93t-94 -38.5t-94 38.5t-39 93zM594 4q0 -34 -24 -57.5t-58.5 -23.5t-58.5 24t-24 57q0 34 24.5 58t57.5 24q35 0 59 -24t24 -58zM897 -77q-34 0 -58.5 24t-24.5 57q0 34 24.5 58t58.5 24t58 -24t24 -58t-24 -57.5
t-58 -23.5zM922 126l-7 2l-2 6q-30 92 -95 157q-54 54 -129 86q-70 29 -145 35h-11v119l-2 11l11 2q63 11 104 59t41 112q0 72 -51 123t-124 51t-124 -51t-51 -123q0 -63 40.5 -111t103.5 -60l11 -2l-1 -11v-119h-11q-73 -5 -146 -35q-75 -32 -130 -86q-64 -65 -94 -157
l-2 -7l-7 -2q-43 -9 -71 -43.5t-28 -77.5q0 -52 36.5 -88.5t88.5 -36.5t88.5 36.5t36.5 88.5q0 41 -24 73.5t-64 45.5l-12 3l5 12q52 139 191 198q63 26 129 32l13 1v-242l-9 -2q-42 -11 -68.5 -44.5t-26.5 -76.5q0 -51 37 -87.5t88.5 -36.5t88.5 36.5t37 87.5
q0 43 -26.5 77t-68.5 44l-9 2v242l12 -1q67 -6 127 -31q140 -58 194 -200l4 -11l-12 -4q-38 -12 -62 -45t-24 -73q0 -52 36.5 -88.5t88.5 -36.5t88.5 36.5t36.5 88.5q1 45 -27.5 79.5t-72.5 42.5z" />
  </font>
</defs>
</svg>
